<?xml version="1.0" encoding="UTF-8" ?>
<!DOCTYPE svg PUBLIC "-//W3C//DTD SVG 1.1//EN" "http://www.w3.org/Graphics/SVG/1.1/DTD/svg11.dtd">
<svg width="512pt" height="512pt" viewBox="0 0 512 512" version="1.1" xmlns="http://www.w3.org/2000/svg">
<g id="#333333ff">
<path fill="#333333" opacity="1.00" d=" M 246.91 91.11 C 249.89 90.17 252.83 88.85 255.99 88.70 C 259.41 88.88 262.57 90.34 265.79 91.35 C 340.55 116.27 415.30 141.21 490.06 166.11 C 493.49 167.36 497.52 168.07 499.92 171.11 C 502.69 174.46 502.80 179.68 500.09 183.10 C 497.80 186.23 493.80 187.05 490.35 188.26 C 413.55 213.83 336.76 239.48 259.95 265.05 C 255.47 266.83 250.91 264.67 246.66 263.28 C 205.94 249.71 165.23 236.12 124.50 222.59 C 152.00 211.25 179.64 200.27 207.27 189.27 C 221.15 184.15 234.90 178.68 248.99 174.15 C 253.78 172.31 259.13 171.46 263.28 168.25 C 268.70 163.75 268.39 154.40 262.67 150.27 C 258.87 147.11 253.52 147.48 249.14 149.14 C 207.64 163.17 167.12 179.92 126.56 196.46 C 113.03 202.45 98.60 208.35 88.80 219.93 C 76.49 234.88 73.81 254.94 71.99 273.57 C 78.98 278.02 84.02 285.69 84.26 294.09 C 84.86 302.63 80.53 311.02 73.71 316.05 C 76.85 335.51 78.48 355.25 78.15 374.98 C 77.72 391.59 72.27 408.50 60.77 420.76 C 55.92 426.01 49.99 430.61 43.03 432.57 C 38.48 434.02 33.91 431.99 29.75 430.28 C 23.90 427.53 17.94 424.97 12.41 421.59 C 8.32 419.13 3.77 417.14 0.70 413.35 C 3.36 409.23 7.21 406.12 10.42 402.46 C 23.02 389.29 33.43 373.86 39.75 356.70 C 44.39 344.42 47.42 331.53 48.74 318.48 C 39.48 314.26 33.15 304.28 33.90 294.04 C 34.19 284.82 40.21 276.45 48.38 272.42 C 50.39 248.62 54.91 223.40 70.77 204.59 C 53.13 198.82 35.56 192.85 17.94 187.02 C 14.18 185.96 10.75 183.06 10.10 179.06 C 8.99 174.04 12.54 168.92 17.41 167.65 C 93.90 142.11 170.41 116.64 246.91 91.11 Z" />
<path fill="#333333" opacity="1.00" d=" M 273.07 287.85 C 319.90 272.24 366.73 256.61 413.56 241.01 C 413.55 263.71 413.58 286.40 413.55 309.10 C 413.56 314.72 412.19 320.36 409.21 325.15 C 402.25 336.56 390.56 343.98 378.93 349.94 C 360.41 358.96 340.35 364.39 320.14 368.06 C 282.14 374.72 243.16 374.95 204.93 370.09 C 187.38 367.35 169.80 364.03 153.05 357.97 C 136.18 352.37 119.36 344.38 107.17 331.10 C 113.97 323.54 118.68 313.51 117.72 303.15 C 117.43 290.20 110.79 277.29 99.39 270.74 C 99.47 261.26 100.08 251.61 103.28 242.59 C 148.75 257.77 194.22 272.94 239.70 288.12 C 244.98 289.88 250.33 291.98 256.00 291.86 C 261.95 291.98 267.52 289.66 273.07 287.85 Z" />
</g>
</svg>
