<?xml version="1.0" encoding="UTF-8" ?>
<!DOCTYPE svg PUBLIC "-//W3C//DTD SVG 1.1//EN" "http://www.w3.org/Graphics/SVG/1.1/DTD/svg11.dtd">
<svg width="442pt" height="442pt" viewBox="0 0 442 442" version="1.1" xmlns="http://www.w3.org/2000/svg">
<g id="#000000ff">
<path fill="#000000" opacity="1.00" d=" M 195.54 1.75 C 236.80 -3.22 279.31 4.22 316.69 22.27 C 345.84 36.24 371.92 56.65 392.17 81.87 C 416.61 111.61 432.66 148.01 438.83 185.96 C 447.51 238.13 436.16 293.23 408.04 337.98 C 390.25 366.39 365.97 390.73 337.42 408.34 C 299.90 431.81 255.21 443.51 211.00 441.45 C 174.96 439.79 139.37 429.13 108.34 410.70 C 79.09 393.33 53.97 369.08 35.53 340.49 C 13.41 306.23 1.11 265.73 0.36 224.96 C -0.44 183.47 10.91 141.88 32.45 106.43 C 55.53 68.21 90.55 37.40 131.41 19.40 C 151.74 10.35 173.43 4.33 195.54 1.75 M 175.50 13.51 C 176.64 16.03 175.57 20.18 178.46 21.37 C 178.42 19.72 178.34 18.08 178.26 16.44 C 180.74 15.68 183.27 15.08 185.85 14.77 C 187.46 23.93 189.03 33.11 190.12 42.36 C 189.01 42.91 187.88 43.45 186.75 43.97 L 187.08 45.56 C 191.57 44.69 196.09 44.04 200.59 43.21 C 199.94 41.32 197.84 41.52 196.31 41.01 C 194.47 31.95 193.20 22.79 191.68 13.67 C 194.26 13.56 196.92 12.73 199.47 13.19 C 200.36 14.79 200.10 17.40 202.36 17.87 C 202.13 14.96 201.62 12.07 201.18 9.18 C 192.70 11.05 184.01 11.74 175.50 13.51 M 161.98 16.98 C 161.92 17.50 161.80 18.54 161.74 19.06 C 162.65 18.87 164.47 18.49 165.38 18.30 C 168.77 24.86 170.38 32.12 172.77 39.06 C 165.60 34.00 158.42 28.93 151.61 23.39 C 148.49 20.19 142.77 22.35 140.38 25.36 C 141.79 25.43 143.20 25.48 144.61 25.51 C 147.73 34.46 151.58 43.29 152.89 52.74 C 151.84 53.27 148.48 55.23 151.35 55.64 C 154.45 54.76 157.47 53.60 160.54 52.58 C 160.00 50.51 158.10 51.25 156.54 51.49 C 153.15 44.41 151.29 36.74 148.77 29.34 C 157.31 35.50 165.66 41.90 174.23 48.01 C 175.64 47.97 177.06 47.92 178.47 47.88 C 175.11 37.76 171.21 27.79 168.75 17.39 C 170.15 16.63 171.97 16.00 171.18 14.03 C 168.14 15.09 165.01 15.91 161.98 16.98 M 226.31 18.27 C 219.84 22.25 218.26 31.63 221.80 38.07 C 225.30 45.33 237.51 45.22 241.06 38.05 C 244.83 31.90 244.44 22.12 237.63 18.27 C 234.00 17.22 229.88 16.87 226.31 18.27 M 283.41 20.57 C 281.96 30.05 277.52 38.71 274.52 47.74 C 273.77 47.91 272.27 48.27 271.52 48.44 C 272.19 49.28 273.05 49.84 274.09 50.13 C 279.88 52.10 285.61 54.28 291.49 55.99 C 292.53 53.33 293.64 50.69 294.52 47.97 C 292.25 48.07 291.83 50.67 290.72 52.16 C 287.17 51.86 283.85 50.57 280.57 49.26 C 282.10 45.24 282.85 40.74 285.01 37.07 C 287.49 37.51 289.78 38.61 292.07 39.60 C 291.78 41.21 290.70 43.09 292.34 44.35 C 293.73 41.01 294.80 37.55 296.11 34.18 L 294.97 33.61 C 293.33 38.19 288.61 35.54 285.58 34.34 C 286.82 30.68 288.34 27.13 289.59 23.47 C 292.82 23.88 295.89 25.05 298.56 26.90 C 298.24 28.39 297.97 29.89 297.75 31.39 C 300.35 29.96 300.58 26.68 301.87 24.31 C 295.23 22.01 288.59 19.67 281.88 17.62 C 279.43 18.03 282.45 20.34 283.41 20.57 M 246.61 19.86 C 247.67 20.29 248.73 20.72 249.80 21.15 C 248.96 28.14 247.95 35.14 246.36 42.01 C 245.26 42.36 244.23 42.86 243.28 43.51 C 247.06 44.16 250.85 44.97 254.72 45.03 C 253.57 44.18 252.40 43.39 251.17 42.70 C 251.45 39.35 251.80 36.00 252.49 32.70 C 254.19 33.14 255.89 33.61 257.58 34.09 C 257.64 35.06 257.69 36.03 257.75 37.01 L 258.91 37.00 C 259.23 34.28 259.68 31.58 259.84 28.85 C 259.18 29.72 258.55 30.62 257.97 31.54 C 256.25 31.47 254.53 31.35 252.82 31.19 C 253.26 28.03 253.87 24.89 254.62 21.79 C 256.65 22.42 259.50 22.16 260.80 24.19 C 260.91 25.02 261.12 26.69 261.23 27.53 C 262.50 25.62 262.76 23.30 263.36 21.13 C 258.48 20.59 253.65 19.75 248.79 19.12 C 248.24 19.31 247.15 19.68 246.61 19.86 M 310.84 28.21 C 310.51 30.01 311.96 31.16 313.02 32.37 C 308.88 40.94 304.38 49.34 299.32 57.40 C 298.53 57.45 296.95 57.54 296.16 57.59 C 298.56 60.50 302.56 61.30 305.53 63.54 C 311.32 67.77 319.85 68.23 325.70 63.88 C 329.28 61.08 332.08 57.23 333.62 52.95 C 335.03 48.84 335.03 43.54 331.50 40.47 C 325.67 34.80 317.57 32.55 310.84 28.21 M 111.50 38.62 C 111.94 39.26 112.39 39.89 112.84 40.53 C 113.80 40.13 114.76 39.72 115.73 39.32 C 120.47 47.08 124.80 55.09 128.55 63.37 C 129.25 64.74 128.01 66.19 127.90 67.57 C 134.64 65.22 140.60 61.07 146.95 57.84 C 145.76 55.58 144.84 53.19 143.66 50.93 C 143.23 50.89 142.39 50.80 141.96 50.76 C 142.43 52.50 142.93 54.24 143.42 55.98 C 140.70 58.22 137.58 59.87 134.45 61.43 C 132.42 57.46 130.23 53.59 128.06 49.70 C 130.34 48.52 132.63 47.34 134.96 46.26 C 135.57 47.09 136.79 48.75 137.40 49.58 L 138.86 48.77 C 136.99 45.61 135.37 42.31 133.59 39.10 C 131.75 40.64 134.93 43.40 132.54 44.38 C 130.77 45.63 128.75 46.42 126.78 47.29 C 125.06 43.74 123.54 40.09 121.58 36.65 C 124.41 35.42 126.93 33.12 130.10 32.91 C 131.19 34.04 132.10 35.32 133.11 36.53 C 133.63 33.62 131.90 31.09 130.94 28.49 C 124.40 31.74 118.15 35.57 111.50 38.62 M 95.78 49.25 C 98.92 57.21 101.01 65.51 103.51 73.68 C 95.71 70.05 88.28 65.73 80.91 61.32 C 78.22 63.64 75.42 65.83 72.63 68.03 C 74.05 69.72 75.85 68.06 77.41 67.79 C 81.53 72.34 85.31 77.19 89.14 81.98 C 91.21 84.59 93.48 87.09 94.89 90.15 C 94.34 90.73 93.24 91.89 92.69 92.47 C 93.06 92.81 93.80 93.51 94.17 93.85 C 96.50 91.74 99.09 89.94 101.47 87.90 C 100.89 84.95 97.70 88.68 96.45 86.67 C 91.13 81.15 86.68 74.86 81.79 68.97 C 90.48 73.67 99.14 78.46 107.75 83.31 C 108.00 83.10 108.51 82.66 108.77 82.45 C 105.87 73.14 102.81 63.87 100.22 54.46 C 105.48 60.67 110.86 66.84 115.40 73.60 C 113.70 74.63 113.24 75.97 114.01 77.62 C 117.68 74.86 121.18 71.88 124.77 69.01 C 123.36 67.74 121.77 68.51 120.28 69.12 C 114.20 62.86 109.13 55.73 103.56 49.03 C 102.01 47.34 103.82 45.30 104.57 43.72 C 100.93 43.46 98.75 47.54 95.78 49.25 M 342.41 48.92 C 342.98 49.53 344.10 50.74 344.66 51.35 C 340.35 57.69 335.13 63.36 330.57 69.51 C 323.95 78.79 338.24 91.29 347.14 85.24 C 353.26 79.64 357.84 72.59 363.72 66.75 C 364.82 67.14 365.93 67.52 367.04 67.89 C 366.99 67.52 366.89 66.79 366.83 66.43 C 364.58 64.31 362.08 62.48 359.89 60.29 C 358.34 61.94 360.00 63.58 360.76 65.13 C 356.50 71.02 351.89 76.68 346.83 81.89 C 341.80 86.77 331.99 79.70 335.37 73.43 C 339.63 66.94 344.70 61.02 349.94 55.31 C 351.00 55.98 352.06 56.64 353.13 57.29 L 353.45 55.54 C 350.54 52.53 346.86 50.31 343.93 47.28 C 343.55 47.69 342.79 48.51 342.41 48.92 M 203.56 53.79 C 172.16 57.03 141.76 69.31 116.98 88.88 C 89.05 110.78 68.43 141.78 59.03 176.01 C 49.87 208.55 51.04 243.85 62.13 275.77 C 72.63 306.24 92.13 333.54 117.58 353.33 C 145.55 375.13 180.54 387.84 216.01 388.79 C 246.07 389.74 276.29 382.31 302.55 367.67 C 328.86 353.13 351.06 331.30 366.11 305.29 C 381.65 278.69 389.56 247.74 388.85 216.96 C 388.10 185.53 378.40 154.33 360.95 128.17 C 345.00 104.04 322.74 84.12 296.92 71.07 C 268.31 56.54 235.48 50.40 203.56 53.79 M 51.43 92.76 C 53.49 94.52 55.60 96.23 57.72 97.93 L 58.69 96.78 C 57.57 95.60 56.45 94.42 55.34 93.24 C 56.97 91.14 58.65 89.07 60.30 86.99 C 67.26 93.02 74.47 98.75 81.28 104.95 C 80.84 106.22 80.38 107.49 79.91 108.76 L 81.39 109.66 C 83.92 106.00 86.80 102.58 89.94 99.43 C 89.56 99.15 88.81 98.58 88.43 98.30 C 87.64 98.92 86.84 99.52 86.02 100.08 C 84.82 99.75 83.89 98.88 82.91 98.17 C 76.52 93.08 70.16 87.95 64.13 82.43 C 65.76 80.55 67.42 78.69 69.13 76.89 C 70.63 77.86 72.14 78.81 73.69 79.70 C 73.65 76.29 70.04 75.12 68.00 73.01 C 62.67 79.75 57.22 86.41 51.43 92.76 M 354.50 88.44 C 350.93 94.55 352.99 102.66 357.95 107.37 C 360.77 110.00 364.70 112.35 368.64 110.88 C 364.14 108.53 358.75 105.57 358.06 99.96 C 357.16 92.45 363.16 86.49 369.10 82.98 C 375.64 79.29 385.15 84.92 384.13 92.69 C 383.07 93.69 382.02 94.71 380.97 95.73 C 381.39 96.16 381.81 96.58 382.24 97.01 C 384.35 95.34 386.50 93.70 388.68 92.13 C 386.19 85.70 381.61 79.21 374.50 77.61 C 366.31 75.93 358.33 81.49 354.50 88.44 M 44.19 104.18 C 40.11 108.93 37.48 114.67 34.04 119.85 C 34.57 120.19 35.10 120.53 35.64 120.87 C 36.37 120.01 37.11 119.15 37.85 118.30 C 46.12 122.94 54.05 128.14 61.87 133.49 C 61.50 135.08 60.54 136.82 62.10 138.23 C 63.73 135.52 65.33 132.80 67.04 130.14 C 67.77 128.62 69.64 127.09 68.31 125.26 C 67.37 126.15 66.43 127.06 65.51 127.98 C 61.01 125.96 57.08 122.84 52.53 120.96 C 52.98 120.38 53.43 119.79 53.87 119.20 C 60.33 119.75 66.83 119.57 73.26 120.47 C 74.59 118.23 76.00 116.04 77.43 113.86 C 75.65 113.01 73.84 114.03 72.01 113.97 C 66.90 114.01 61.80 113.74 56.69 113.88 C 57.34 110.18 56.09 106.19 53.01 103.93 C 50.56 101.90 46.29 101.42 44.19 104.18 M 369.94 116.99 C 369.03 115.94 367.92 115.61 366.63 116.00 C 368.28 119.03 370.07 121.97 371.99 124.83 C 373.34 123.55 372.68 121.93 372.07 120.40 C 374.55 119.39 377.09 118.50 379.75 118.10 C 381.57 121.08 383.33 124.10 385.16 127.09 C 383.43 129.13 381.63 131.09 379.77 133.01 C 378.61 131.97 377.53 130.59 375.78 131.00 C 377.85 135.14 380.27 139.09 382.80 142.96 C 383.83 141.77 384.06 140.36 383.49 138.74 C 390.28 130.16 397.21 121.69 404.19 113.26 C 403.81 112.62 403.06 111.35 402.68 110.72 C 391.72 112.59 381.07 116.14 369.94 116.99 M 405.25 131.94 C 405.46 132.30 405.88 133.01 406.09 133.36 C 407.48 132.82 408.87 132.28 410.28 131.74 C 411.39 134.19 412.43 136.67 413.52 139.12 C 404.65 142.09 396.39 146.70 387.33 149.12 C 386.21 148.05 385.60 145.72 383.46 146.71 C 385.47 150.96 387.27 155.29 388.90 159.70 C 390.36 158.72 390.71 157.30 389.93 155.43 C 398.20 151.06 407.11 148.13 415.78 144.67 C 416.72 147.06 417.62 149.48 418.27 151.97 C 416.79 153.01 413.94 153.27 414.30 155.65 C 417.02 154.69 419.69 153.61 422.43 152.67 C 418.69 144.78 415.58 136.63 412.44 128.50 C 410.02 129.61 407.60 130.70 405.25 131.94 M 57.45 141.53 C 46.44 141.38 35.41 140.49 24.41 140.93 C 24.09 141.49 23.44 142.60 23.12 143.15 C 31.26 150.52 39.99 157.23 47.79 164.96 C 47.66 166.50 48.15 167.74 49.26 168.68 C 50.43 165.30 52.67 162.12 52.52 158.43 C 51.30 159.50 50.20 160.70 49.10 161.90 C 46.98 160.35 44.93 158.73 42.90 157.08 C 44.22 153.83 45.62 150.62 47.00 147.40 C 49.64 147.41 52.27 147.63 54.88 148.06 C 54.16 149.91 54.57 151.29 56.10 152.21 C 57.46 148.21 59.33 144.41 60.77 140.46 C 60.52 140.10 60.01 139.39 59.76 139.03 C 58.99 139.86 58.22 140.69 57.45 141.53 M 17.31 162.38 C 14.59 168.48 13.91 175.27 12.06 181.66 C 13.83 181.16 14.99 180.02 15.55 178.26 C 24.68 180.16 33.70 182.57 42.68 185.07 C 42.97 186.65 42.89 188.55 44.52 189.44 C 45.74 184.86 47.02 180.30 48.19 175.71 C 45.71 174.88 45.52 177.53 44.69 179.08 C 35.37 177.33 26.24 174.76 17.08 172.31 C 17.51 170.69 17.69 168.96 18.52 167.47 C 21.96 164.96 27.38 165.94 29.77 169.46 C 30.84 171.10 30.20 173.19 30.41 175.02 C 34.37 172.46 33.61 166.47 30.69 163.42 C 27.42 159.80 20.84 158.40 17.31 162.38 M 422.36 161.10 C 422.53 161.87 422.87 163.43 423.04 164.21 C 414.17 167.43 404.88 169.33 395.72 171.54 C 394.79 170.25 393.93 168.69 392.09 168.85 C 393.02 173.31 394.26 177.71 395.59 182.07 C 397.17 181.27 397.64 179.95 397.00 178.11 C 406.15 174.94 415.55 172.51 425.06 170.70 C 425.28 171.52 425.73 173.17 425.96 173.99 C 426.44 173.74 427.40 173.23 427.88 172.98 C 426.87 168.78 425.51 164.68 424.45 160.50 L 422.36 161.10 M 407.56 183.74 C 404.64 184.75 401.83 186.41 400.04 188.98 C 394.66 196.52 397.93 208.84 406.74 212.17 C 411.53 213.68 416.77 213.61 421.63 212.43 C 426.35 211.24 430.93 207.90 432.11 202.97 C 433.44 196.97 432.29 189.72 427.18 185.77 C 421.61 181.61 413.94 181.80 407.56 183.74 M 10.62 191.61 C 9.72 198.92 8.91 206.27 8.88 213.64 C 10.36 213.09 11.21 211.97 11.42 210.28 C 20.85 210.46 30.22 211.56 39.56 212.75 C 40.22 213.65 40.89 214.55 41.56 215.45 C 42.07 214.38 42.42 213.22 42.43 212.03 C 42.81 206.05 43.73 200.11 43.56 194.10 C 40.95 194.21 37.16 191.78 35.44 194.51 C 37.05 195.03 38.66 195.54 40.28 196.06 C 40.60 199.56 40.43 203.08 39.95 206.56 C 35.55 206.31 31.18 205.78 26.81 205.35 C 26.94 202.83 27.16 200.31 27.69 197.84 C 29.12 197.77 30.56 197.68 31.99 197.57 C 31.80 197.26 31.44 196.65 31.25 196.35 C 27.82 195.51 24.20 195.38 20.68 194.90 C 20.68 197.13 23.00 197.05 24.57 197.63 C 24.53 200.22 24.35 202.81 24.01 205.38 C 20.00 205.03 16.01 204.42 12.01 203.91 C 12.49 200.79 12.93 197.66 13.48 194.56 C 15.17 194.49 16.85 194.39 18.53 194.23 C 16.58 192.03 13.25 192.38 10.62 191.61 M 400.13 216.92 C 400.03 220.50 400.00 224.07 399.75 227.65 C 401.68 227.39 401.56 225.30 402.21 223.98 C 410.08 224.36 417.95 224.77 425.83 225.09 C 416.78 230.71 407.76 236.36 398.60 241.79 C 398.17 243.17 397.75 244.55 397.34 245.94 C 407.91 246.66 418.56 246.62 429.05 248.28 C 429.25 249.42 429.45 250.56 429.66 251.71 C 430.09 251.72 430.94 251.74 431.37 251.75 C 431.43 248.48 431.98 245.24 431.99 241.98 C 429.96 240.00 429.99 244.14 429.16 245.28 C 421.92 245.12 414.72 244.21 407.48 244.16 C 415.68 238.57 424.32 233.68 432.88 228.67 C 433.00 225.62 433.30 222.58 433.60 219.54 L 431.75 219.44 C 431.50 220.63 431.25 221.82 430.99 223.01 C 421.40 222.78 411.80 222.20 402.33 220.62 C 402.03 219.05 402.40 216.79 400.13 216.92 M 14.61 221.65 C 11.84 223.11 9.97 225.83 9.37 228.87 C 7.81 236.63 10.61 244.38 10.25 252.19 C 12.16 251.87 12.22 249.87 12.76 248.39 C 21.99 246.96 31.34 246.48 40.65 246.30 C 41.34 246.78 42.72 247.74 43.41 248.22 C 43.01 241.50 43.69 234.39 40.91 228.07 C 35.95 219.16 23.16 216.43 14.61 221.65 M 35.44 275.58 C 28.66 277.86 27.46 288.68 33.76 292.23 C 39.57 296.59 49.07 291.34 48.41 284.09 C 48.48 277.74 41.23 273.09 35.44 275.58 M 399.41 276.41 C 393.42 279.40 392.63 288.83 398.52 292.36 C 404.26 296.61 413.34 292.12 413.41 284.98 C 413.78 278.02 405.42 273.06 399.41 276.41 M 365.49 318.85 C 363.16 322.51 360.68 326.09 357.99 329.50 C 359.79 331.02 360.87 329.28 361.95 327.98 C 370.15 333.05 377.78 338.96 385.27 345.01 C 384.89 345.66 384.13 346.96 383.75 347.61 C 384.26 348.08 384.78 348.55 385.30 349.02 C 387.71 345.49 390.30 342.10 392.84 338.67 C 392.51 338.27 391.84 337.47 391.51 337.07 C 390.73 337.93 389.95 338.80 389.18 339.66 C 381.03 334.48 373.13 328.88 365.79 322.61 C 366.26 321.63 366.75 320.66 367.23 319.69 C 366.80 319.48 365.92 319.06 365.49 318.85 M 64.85 334.10 C 65.89 337.69 68.49 341.02 67.82 344.95 C 67.35 347.21 65.01 348.38 63.00 349.03 C 58.97 349.73 55.68 345.67 55.37 341.97 C 54.85 338.77 58.36 337.29 59.25 334.58 C 56.30 335.60 53.80 337.51 51.14 339.10 C 51.89 342.76 53.18 346.44 55.83 349.18 C 60.84 355.35 71.78 352.84 74.97 346.01 C 76.33 340.63 71.14 336.31 71.66 331.03 C 73.09 327.60 78.18 326.33 80.86 329.05 C 82.71 330.56 83.01 333.04 83.63 335.20 C 82.42 336.42 81.19 337.62 79.96 338.83 C 80.36 339.16 80.77 339.50 81.18 339.84 C 83.22 338.39 85.37 337.11 87.55 335.89 C 86.36 331.56 84.08 327.25 80.07 324.94 C 73.88 320.87 64.35 326.89 64.85 334.10 M 354.68 333.42 C 352.11 336.17 349.82 339.16 347.10 341.76 C 347.45 342.31 347.81 342.87 348.17 343.43 C 348.88 342.89 350.31 341.79 351.02 341.25 C 358.12 347.00 364.90 353.17 371.40 359.60 C 372.98 360.68 371.05 362.18 370.47 363.18 C 370.83 363.53 371.56 364.25 371.92 364.61 C 374.84 361.41 377.64 358.10 380.65 354.98 C 380.24 354.57 379.41 353.74 379.00 353.33 C 378.48 353.86 377.45 354.93 376.93 355.47 C 375.36 354.60 373.93 353.51 372.60 352.30 C 366.80 347.10 360.76 342.15 355.44 336.45 C 357.36 335.45 356.96 330.55 354.68 333.42 M 85.53 345.14 C 87.89 346.41 88.76 342.75 90.85 343.07 C 92.99 344.22 94.64 346.06 96.42 347.67 C 90.36 354.22 84.44 360.93 78.03 367.14 C 76.53 368.68 73.79 364.58 73.04 367.59 C 76.20 370.61 79.30 373.72 82.68 376.49 C 85.80 376.04 82.41 373.98 81.94 372.77 C 87.54 365.20 94.45 358.75 100.83 351.87 C 102.63 353.62 104.45 355.35 106.25 357.09 C 105.31 358.81 103.06 360.27 103.85 362.51 C 106.14 360.66 108.14 358.50 110.19 356.40 C 103.67 350.65 97.25 344.78 91.15 338.59 C 89.36 340.84 87.37 342.92 85.53 345.14 M 334.86 353.07 C 339.10 363.05 343.44 373.00 347.60 383.02 C 346.92 384.42 345.86 385.92 346.71 387.51 C 349.18 385.45 351.68 383.39 353.82 380.98 L 353.43 379.25 C 352.34 379.92 351.26 380.60 350.18 381.29 C 348.73 379.06 347.51 376.70 346.52 374.24 C 349.12 371.88 351.74 369.54 354.26 367.08 C 356.67 368.44 359.09 369.82 361.43 371.31 C 360.65 372.15 359.86 372.99 359.08 373.84 C 359.45 374.18 360.20 374.88 360.58 375.22 C 363.88 372.01 367.55 369.19 370.70 365.82 C 369.09 365.79 367.50 365.97 365.94 366.36 C 356.05 361.64 346.63 356.00 336.82 351.11 C 336.14 351.74 335.49 352.40 334.86 353.07 M 322.14 363.98 C 323.86 365.32 326.89 362.84 327.74 365.26 C 330.11 371.03 332.03 376.98 334.15 382.85 C 327.68 377.76 321.21 372.68 315.11 367.15 C 314.77 367.56 314.09 368.39 313.75 368.80 C 315.67 376.78 317.17 384.86 318.99 392.86 C 314.42 388.12 310.31 382.96 305.68 378.27 C 305.66 377.87 305.62 377.05 305.60 376.65 C 306.69 375.72 307.61 374.67 307.06 373.15 C 303.22 375.41 299.52 377.88 295.75 380.25 C 297.05 381.93 299.57 380.45 300.76 382.28 C 307.85 389.18 314.19 396.80 320.94 404.04 C 321.63 403.67 323.02 402.95 323.71 402.59 C 321.69 394.39 320.03 386.11 318.36 377.84 C 324.68 383.32 331.38 388.35 337.52 394.04 C 338.42 393.37 339.31 392.71 340.22 392.05 C 336.09 382.26 333.04 372.07 329.64 362.01 C 330.24 361.26 330.84 360.51 331.45 359.77 C 331.26 359.42 330.87 358.71 330.68 358.36 C 327.84 360.24 324.80 361.82 322.14 363.98 M 94.02 379.03 C 92.07 380.74 89.38 380.15 87.08 380.92 C 89.98 383.16 92.86 385.56 96.35 386.83 C 95.89 385.32 94.87 384.14 93.93 382.93 C 95.80 381.06 97.85 379.39 99.98 377.84 C 102.89 379.83 105.75 381.90 108.61 383.97 C 107.83 386.56 106.91 389.11 105.88 391.62 C 104.33 390.26 102.86 390.20 101.48 391.47 C 105.06 393.84 108.45 396.50 112.08 398.81 L 113.63 398.12 C 113.12 397.57 112.08 396.47 111.57 395.92 C 114.52 385.15 117.77 374.47 120.62 363.67 C 119.82 363.12 119.03 362.57 118.23 362.03 C 110.20 367.76 102.08 373.35 94.02 379.03 M 129.29 369.82 C 128.00 372.46 126.66 375.07 125.44 377.74 C 127.92 378.41 128.43 375.54 129.69 374.18 C 132.05 375.11 134.35 376.20 136.61 377.38 C 132.49 385.78 128.14 394.09 123.17 402.02 C 122.38 401.79 120.79 401.32 120.00 401.08 C 119.73 401.49 119.20 402.29 118.94 402.69 C 122.95 404.48 126.81 406.60 130.62 408.78 C 130.98 408.43 131.70 407.72 132.06 407.36 C 131.08 406.63 130.09 405.90 129.10 405.18 C 132.80 396.54 137.56 388.43 142.14 380.24 C 144.32 381.37 146.47 382.58 148.56 383.87 C 147.89 385.68 147.36 387.53 146.97 389.42 C 149.78 388.04 150.66 384.70 152.47 382.34 C 144.63 378.40 136.68 374.60 129.29 369.82 M 284.33 383.71 C 284.81 392.50 285.25 401.29 285.72 410.08 C 285.72 413.26 287.15 417.29 283.26 418.87 L 284.67 419.71 C 287.65 418.76 290.52 417.47 293.40 416.25 C 292.28 414.96 290.59 414.95 289.02 414.85 C 288.62 412.39 288.25 409.93 288.00 407.45 C 291.17 406.07 294.42 404.86 297.61 403.54 C 299.16 405.32 301.10 406.86 302.09 409.04 C 302.62 410.79 299.87 411.57 300.30 413.47 C 304.65 411.73 309.06 410.13 313.34 408.22 C 312.02 407.25 310.53 406.80 308.88 406.86 C 301.47 398.86 294.33 390.61 286.98 382.55 C 286.32 382.84 284.99 383.42 284.33 383.71 M 154.68 383.30 C 154.60 385.15 156.39 385.83 157.54 386.83 C 155.89 395.20 152.60 403.10 149.89 411.16 C 149.44 413.40 147.15 414.30 145.59 415.65 C 152.54 417.19 159.01 420.40 166.03 421.67 C 167.12 419.04 168.22 416.41 169.18 413.72 C 166.56 413.65 166.04 416.49 164.84 418.22 C 161.37 417.74 158.10 416.49 154.84 415.29 C 156.23 411.13 157.56 406.94 159.01 402.81 C 161.45 403.52 163.86 404.38 166.14 405.53 C 165.96 406.66 165.60 408.90 165.41 410.03 C 168.95 407.86 168.78 402.77 170.31 399.21 C 168.52 399.29 168.10 401.17 166.96 402.19 C 164.43 402.37 162.12 401.02 159.77 400.28 C 161.02 396.47 162.41 392.71 163.68 388.92 C 166.59 389.85 169.54 390.74 172.25 392.18 C 172.26 393.63 172.09 395.09 171.73 396.54 L 173.11 396.98 C 173.97 394.58 174.97 392.24 175.99 389.91 C 168.86 387.79 161.93 385.01 154.68 383.30 M 259.55 391.39 C 260.31 393.14 262.20 393.04 263.79 393.21 C 264.74 396.92 265.55 400.65 266.51 404.36 C 262.11 405.43 257.69 406.46 253.20 407.14 C 252.23 403.44 251.65 399.64 251.10 395.86 C 253.01 395.50 253.98 394.40 254.01 392.56 C 249.61 393.61 245.17 394.42 240.73 395.24 C 240.90 397.39 243.07 396.95 244.63 397.20 C 247.12 406.40 249.32 415.70 250.56 425.16 C 249.78 425.43 248.22 425.96 247.44 426.22 C 247.60 426.70 247.92 427.64 248.08 428.11 C 252.33 427.22 256.59 426.42 260.81 425.38 L 260.41 423.51 C 259.55 423.63 257.85 423.86 256.99 423.98 C 255.81 419.35 254.90 414.65 253.77 410.00 C 258.17 409.02 262.60 408.16 267.04 407.38 C 268.11 411.81 269.05 416.27 269.59 420.80 C 268.31 421.51 267.05 422.24 265.81 423.01 L 267.30 423.77 C 271.51 423.65 275.59 422.08 279.75 421.40 C 279.66 420.93 279.49 419.97 279.41 419.49 C 278.21 419.49 277.02 419.49 275.83 419.50 C 273.63 410.23 271.55 400.92 269.97 391.52 C 270.75 391.33 272.30 390.97 273.08 390.79 C 272.96 390.21 272.70 389.06 272.58 388.48 C 268.26 389.57 263.91 390.50 259.55 391.39 M 193.23 403.27 C 186.71 406.61 184.80 415.36 187.04 421.91 C 189.79 429.31 200.94 430.89 206.01 425.05 C 209.82 420.35 211.09 413.40 208.42 407.86 C 205.61 402.67 198.42 401.18 193.23 403.27 M 213.49 404.14 C 214.50 404.90 215.54 405.65 216.60 406.36 C 217.26 413.28 216.96 420.24 216.92 427.18 C 215.71 427.47 214.30 427.55 213.67 428.81 C 217.38 429.12 221.11 428.99 224.83 428.92 C 224.81 428.57 224.76 427.87 224.74 427.51 C 224.00 427.51 222.53 427.49 221.80 427.48 C 221.43 423.94 221.46 420.37 221.41 416.82 C 224.46 416.35 227.00 417.59 228.10 420.52 C 228.31 417.68 228.28 414.82 228.11 411.99 C 226.98 412.61 226.67 413.83 226.33 414.99 C 224.63 414.99 222.94 415.00 221.24 415.01 C 221.24 412.00 221.23 408.99 221.23 405.99 C 223.42 406.01 225.64 405.84 227.81 406.26 C 228.11 407.49 228.39 408.73 228.65 409.98 C 230.33 408.49 229.64 405.97 230.07 403.99 C 224.54 404.06 219.01 403.83 213.49 404.14 Z" />
<path fill="#000000" opacity="1.00" d=" M 229.48 19.58 C 231.93 18.33 235.25 18.95 236.71 21.40 C 239.43 25.79 239.18 31.42 237.83 36.24 C 237.02 39.20 234.29 41.84 231.09 41.64 C 226.96 41.05 224.80 36.71 224.68 32.91 C 224.27 28.21 224.94 22.15 229.48 19.58 Z" />
<path fill="#000000" opacity="1.00" d=" M 318.40 35.59 C 322.85 36.93 328.27 39.80 328.39 45.09 C 328.75 52.17 324.43 58.91 318.67 62.73 C 314.06 65.33 308.62 62.99 304.82 60.01 C 309.06 51.72 313.61 43.58 318.40 35.59 Z" />
<path fill="#000000" opacity="1.00" d=" M 205.54 57.79 C 256.78 52.36 309.89 73.31 343.88 112.00 C 366.20 137.06 380.75 169.09 384.27 202.51 C 389.45 245.37 376.42 289.98 349.35 323.57 C 321.92 358.07 279.96 380.42 236.10 384.35 C 220.35 385.94 204.41 384.65 188.88 381.74 C 156.23 375.21 125.74 358.38 102.72 334.33 C 68.36 298.79 51.60 247.04 58.86 198.13 C 63.64 163.20 80.23 130.06 105.19 105.18 C 131.74 78.31 167.95 61.32 205.54 57.79 M 199.48 65.89 C 199.47 90.12 199.49 114.36 199.53 138.59 C 199.67 140.73 202.46 139.54 203.82 139.69 C 205.27 143.20 207.19 146.49 209.12 149.75 C 213.93 121.28 219.13 92.88 224.10 64.44 C 215.88 64.34 207.58 64.23 199.48 65.89 M 226.99 64.41 C 222.29 90.56 217.79 116.76 213.07 142.91 C 212.49 146.15 211.69 149.38 211.74 152.69 C 209.46 160.61 208.86 168.90 207.04 176.93 C 206.33 176.88 204.93 176.79 204.22 176.74 C 205.59 169.91 206.68 163.02 207.86 156.15 C 205.07 155.87 202.27 155.91 199.50 156.37 C 199.46 162.58 199.51 168.78 199.49 174.99 C 198.81 174.99 197.45 174.99 196.77 174.99 C 196.70 168.22 196.90 161.44 196.69 154.68 C 195.56 153.14 193.38 153.05 191.74 152.39 C 193.30 151.03 193.32 149.59 191.87 148.20 C 190.40 149.12 188.79 149.23 187.15 148.68 C 189.36 157.09 190.14 165.77 191.84 174.28 C 191.15 174.43 189.77 174.72 189.08 174.87 C 188.06 167.70 186.39 160.64 185.50 153.45 C 184.25 153.79 183.00 154.11 181.75 154.43 C 181.41 149.32 176.96 146.30 174.55 142.20 C 173.26 140.20 171.39 138.24 171.93 135.64 C 171.01 134.80 170.08 133.98 169.15 133.17 C 174.11 147.09 179.19 160.98 184.35 174.82 C 183.65 175.07 182.26 175.57 181.56 175.82 C 170.55 144.60 158.72 113.69 147.74 82.46 C 141.27 86.03 134.98 89.93 128.94 94.19 C 130.53 96.92 132.12 99.65 133.63 102.43 C 137.08 100.31 141.47 100.69 144.52 103.34 C 145.09 103.36 146.24 103.39 146.81 103.41 C 150.06 107.15 149.34 112.56 150.47 117.09 C 151.65 120.30 148.41 122.33 146.47 124.25 C 156.22 141.85 166.53 159.14 176.57 176.58 C 175.99 177.04 174.83 177.95 174.25 178.41 C 164.35 160.76 153.96 143.39 144.02 125.77 C 143.00 127.28 142.04 128.81 141.08 130.36 C 136.85 129.47 132.46 129.01 128.44 127.30 C 126.19 126.00 125.17 123.42 123.58 121.48 C 122.56 119.90 120.92 118.65 120.41 116.80 C 121.07 114.01 123.42 111.97 124.10 109.15 C 124.97 105.98 127.39 103.39 130.70 102.79 C 129.34 100.49 128.03 98.16 126.74 95.82 C 121.20 100.25 115.74 104.80 110.70 109.81 C 130.37 133.09 149.96 156.45 169.47 179.87 C 168.99 180.33 168.02 181.24 167.54 181.70 C 147.97 158.41 128.42 135.10 108.90 111.77 C 103.94 116.65 99.46 121.99 95.38 127.62 C 96.34 128.40 97.29 129.18 98.25 129.95 C 99.73 128.24 100.97 126.33 102.46 124.63 C 104.54 123.06 106.85 121.84 109.05 120.44 C 111.03 125.70 109.64 133.23 103.29 134.50 C 123.40 150.83 143.06 167.71 162.88 184.38 C 162.34 185.09 161.81 185.80 161.28 186.51 C 141.70 170.17 122.26 153.65 102.64 137.35 C 101.41 136.57 100.14 134.60 98.53 136.47 C 98.03 136.05 97.04 135.21 96.55 134.79 C 96.61 134.17 96.74 132.95 96.80 132.34 C 95.75 131.48 94.70 130.63 93.65 129.78 C 89.86 135.33 86.21 141.00 83.10 146.97 C 107.86 161.32 132.64 175.62 157.41 189.95 C 157.03 190.51 156.27 191.62 155.90 192.17 C 131.01 178.14 106.45 163.54 81.62 149.42 C 78.83 155.33 76.12 161.29 73.88 167.43 C 100.34 177.02 126.85 186.47 153.18 196.41 C 152.78 196.95 152.00 198.03 151.60 198.57 C 125.36 189.15 99.20 179.49 72.97 170.02 C 70.82 176.10 69.23 182.36 67.78 188.64 C 94.96 193.86 122.30 198.24 149.51 203.29 C 149.39 203.97 149.13 205.34 149.00 206.02 C 121.71 201.32 94.51 196.09 67.15 191.78 C 66.10 198.06 65.11 204.37 64.87 210.74 C 92.35 210.75 119.84 210.73 147.33 210.73 C 147.33 211.42 147.33 212.80 147.33 213.49 C 119.73 213.49 92.12 213.49 64.52 213.48 C 64.48 219.92 64.01 226.40 65.00 232.79 C 92.31 228.22 119.51 223.03 146.83 218.57 C 146.87 219.27 146.94 220.69 146.98 221.40 C 119.62 225.84 92.39 231.10 65.05 235.63 C 65.89 242.12 66.77 248.60 68.06 255.02 C 94.39 245.33 120.81 235.91 147.10 226.11 C 147.55 227.00 148.00 227.90 148.46 228.80 C 121.82 238.30 95.22 247.93 68.74 257.88 C 70.49 264.21 72.30 270.54 74.66 276.68 C 99.62 262.52 124.46 248.17 149.25 233.72 C 149.59 234.35 150.26 235.60 150.60 236.23 C 125.70 250.66 100.74 265.00 75.79 279.35 C 77.40 283.60 79.36 287.70 81.29 291.81 C 90.27 286.93 99.23 282.02 108.26 277.24 C 112.10 275.23 115.13 272.08 118.46 269.38 C 129.96 259.84 141.29 250.10 152.85 240.65 C 153.19 241.19 153.88 242.29 154.22 242.84 C 144.23 251.62 133.77 259.89 123.76 268.66 C 129.96 265.37 136.08 261.94 142.29 258.67 C 143.70 258.95 145.12 259.24 146.54 259.53 C 149.99 255.39 153.37 251.20 156.79 247.04 C 157.30 247.50 158.33 248.44 158.84 248.90 C 155.67 252.68 152.57 256.52 149.45 260.35 C 152.16 260.99 154.86 261.71 157.56 262.42 C 159.12 259.30 160.59 256.12 162.19 253.02 C 163.01 253.41 163.84 253.80 164.66 254.20 C 163.13 257.30 161.61 260.40 160.15 263.54 C 162.99 263.40 165.42 261.92 167.80 260.52 C 168.12 259.47 168.44 258.42 168.76 257.37 C 169.82 257.69 170.88 258.02 171.94 258.38 C 190.28 248.80 208.70 239.38 226.96 229.64 C 229.99 230.63 232.87 232.14 236.07 232.57 C 246.72 234.36 257.33 236.40 268.00 238.12 C 273.16 239.28 277.86 236.12 282.73 234.98 C 283.60 237.05 284.44 239.14 285.23 241.26 C 292.70 242.45 300.13 243.86 307.59 245.17 C 305.99 241.05 304.68 236.68 301.82 233.21 C 300.36 231.51 299.65 229.39 299.27 227.22 C 277.92 227.25 256.57 227.23 235.22 227.23 C 235.23 226.54 235.24 225.18 235.24 224.49 C 256.50 224.44 277.77 224.56 299.03 224.43 C 301.52 224.53 303.60 222.84 305.41 221.34 C 307.89 219.34 308.39 215.87 310.81 213.84 C 312.68 212.07 315.11 211.15 317.50 210.33 C 316.62 208.75 315.76 207.16 314.90 205.58 C 288.62 210.31 262.30 214.86 236.01 219.51 C 235.89 218.84 235.65 217.49 235.53 216.81 C 261.41 212.12 287.31 207.58 313.23 203.13 C 311.54 199.85 311.66 195.98 313.77 192.92 C 316.12 193.10 318.84 192.46 320.76 194.19 C 324.12 196.65 327.89 198.64 331.96 199.62 C 346.53 197.33 361.05 194.68 375.55 191.98 C 373.54 182.35 370.95 172.82 367.31 163.67 C 323.32 179.55 279.45 195.76 235.42 211.51 C 235.16 210.87 234.64 209.60 234.38 208.96 C 278.38 193.20 322.18 176.92 366.19 161.18 C 362.75 152.11 357.90 143.68 352.80 135.46 C 333.59 146.34 314.72 157.81 295.33 168.36 C 298.22 170.80 298.91 176.14 295.45 178.40 C 293.05 181.24 289.02 180.84 286.13 182.89 C 284.41 182.81 282.68 182.83 280.98 183.10 C 280.37 184.33 280.17 186.06 278.70 186.61 C 276.26 187.85 273.63 186.57 271.31 185.69 C 271.24 184.93 271.08 183.42 271.00 182.66 C 267.86 184.71 263.73 185.88 262.21 189.67 C 260.68 189.89 259.14 190.15 257.72 190.80 C 249.25 194.51 241.77 200.06 233.58 204.30 C 233.20 203.73 232.43 202.57 232.05 201.99 C 238.36 198.29 244.72 194.68 251.06 191.03 C 252.68 189.98 255.04 189.27 254.95 186.93 C 259.15 183.51 264.86 183.70 269.18 180.55 C 267.48 178.57 265.55 176.59 265.31 173.85 C 264.25 172.71 263.17 171.60 262.09 170.49 C 251.44 179.31 240.90 188.25 230.26 197.08 C 229.90 196.53 229.18 195.42 228.82 194.86 C 238.25 186.74 247.86 178.83 257.40 170.82 C 256.72 168.17 256.07 165.52 255.13 162.95 C 256.02 159.02 258.31 154.16 262.96 154.05 C 266.76 154.02 267.80 158.32 268.88 161.15 C 289.62 143.81 310.27 126.35 331.04 109.05 C 324.37 102.42 317.06 96.45 309.26 91.20 C 288.45 116.03 267.59 140.82 246.83 165.69 C 248.10 166.86 249.57 167.88 250.56 169.33 C 251.50 172.08 249.75 174.71 248.74 177.16 C 246.79 177.50 244.85 177.91 242.93 178.43 C 241.65 177.22 240.43 175.94 239.28 174.61 C 234.85 179.98 230.36 185.30 225.84 190.60 C 225.35 190.15 224.36 189.25 223.86 188.80 C 228.77 182.31 234.90 176.76 239.05 169.71 C 238.11 168.40 237.20 167.07 236.32 165.72 C 238.86 164.00 241.90 163.58 244.90 163.73 C 265.53 138.98 286.29 114.34 307.00 89.66 C 299.32 84.78 291.29 80.44 282.92 76.85 C 269.33 100.61 255.41 124.17 241.98 148.01 C 245.67 148.17 249.37 148.32 253.02 148.91 C 250.56 151.89 248.44 155.34 245.02 157.35 C 242.20 157.36 239.39 157.36 236.58 157.25 C 231.09 166.49 225.88 175.89 220.33 185.09 C 219.73 184.77 218.55 184.12 217.95 183.80 C 223.19 174.71 228.47 165.65 233.72 156.58 C 230.35 155.55 226.84 155.34 223.35 155.54 C 220.15 163.88 217.29 172.34 214.08 180.67 C 213.46 180.42 212.21 179.91 211.58 179.66 C 214.46 171.76 217.25 163.82 220.25 155.96 C 218.83 155.74 217.41 155.52 215.99 155.28 C 217.20 152.20 220.07 149.86 220.14 146.37 C 220.92 146.58 222.48 146.98 223.26 147.19 C 233.09 120.65 242.69 94.03 252.25 67.39 C 243.94 65.67 235.49 64.48 226.99 64.41 M 173.67 71.69 C 177.20 90.02 180.19 108.46 183.52 126.83 C 184.83 125.01 186.17 123.19 187.51 121.39 C 188.06 121.37 189.15 121.35 189.69 121.33 C 191.71 124.31 194.29 126.82 196.79 129.40 C 196.77 108.30 196.72 87.21 196.81 66.11 C 188.98 67.46 181.20 69.15 173.67 71.69 M 255.09 67.85 C 245.60 94.24 235.93 120.56 226.44 146.95 C 228.83 146.33 233.38 148.61 234.10 145.28 C 235.74 146.01 237.41 146.68 239.10 147.31 C 252.79 123.41 266.56 99.56 280.42 75.77 C 272.23 72.39 263.69 69.93 255.09 67.85 M 150.15 81.21 C 156.26 98.24 162.53 115.21 168.73 132.21 C 172.55 130.15 176.99 130.16 181.06 128.87 C 177.58 110.10 174.58 91.24 170.94 72.50 C 163.83 74.94 156.92 77.94 150.15 81.21 M 270.87 163.18 C 274.25 162.48 276.61 159.35 280.08 158.98 C 285.02 160.02 288.83 163.71 292.45 167.01 C 312.08 155.76 331.68 144.48 351.20 133.06 C 345.85 125.11 339.58 117.83 333.05 110.84 C 312.42 128.40 291.47 145.59 270.87 163.18 M 336.72 201.80 C 339.58 203.71 342.61 205.26 346.00 205.97 C 349.36 208.15 351.81 211.54 354.83 214.17 C 355.75 217.08 354.81 220.24 355.44 223.24 C 357.12 223.09 358.80 222.93 360.49 222.76 C 360.94 223.19 361.83 224.06 362.28 224.49 C 367.55 224.49 372.81 224.49 378.07 224.48 C 378.24 214.54 377.62 204.58 376.00 194.77 C 362.94 197.32 349.80 199.40 336.72 201.80 M 363.78 227.27 C 364.07 229.11 364.39 231.00 365.41 232.60 C 367.57 236.22 369.56 240.20 373.25 242.52 C 373.81 248.57 368.04 251.97 363.86 255.07 C 367.24 255.71 370.65 256.27 374.06 256.78 C 376.32 247.09 377.58 237.18 378.05 227.24 C 373.29 227.25 368.54 227.22 363.78 227.27 M 239.46 235.96 C 243.02 238.85 244.31 244.59 249.19 245.68 C 254.71 244.48 259.93 242.19 265.35 240.63 C 256.74 238.95 248.08 237.58 239.46 235.96 M 155.98 278.86 C 159.54 279.79 163.20 280.54 166.48 282.30 C 177.93 287.94 185.18 301.19 183.37 313.88 C 183.18 319.50 180.18 324.34 177.92 329.31 C 182.36 326.85 185.89 323.08 188.71 318.91 C 197.59 305.81 194.68 286.39 182.43 276.37 C 200.30 270.65 218.17 264.92 236.10 259.40 C 237.19 258.89 239.03 258.66 239.28 257.26 C 238.69 250.43 234.21 244.13 227.82 241.56 C 203.85 253.95 179.58 265.78 155.98 278.86 M 286.15 244.12 C 287.38 249.38 287.82 254.76 288.04 260.15 C 295.51 262.55 302.84 265.36 310.18 268.12 C 310.61 261.44 309.91 254.76 308.56 248.22 C 301.11 246.74 293.58 245.72 286.15 244.12 M 203.74 271.86 C 198.16 273.52 192.52 275.10 187.32 277.79 C 199.38 291.37 198.50 314.00 185.53 326.69 C 210.31 317.18 234.54 306.32 258.97 295.95 C 261.56 294.69 263.58 292.55 265.55 290.51 C 275.79 279.44 279.87 263.23 276.55 248.57 C 252.35 256.54 227.99 264.02 203.74 271.86 M 347.00 266.61 C 342.81 266.69 340.69 270.90 337.55 273.01 C 335.39 273.95 333.11 274.55 330.94 275.45 C 341.64 279.80 352.65 283.35 363.42 287.51 C 367.38 278.45 371.12 269.24 373.23 259.55 C 369.55 259.02 365.90 258.26 362.25 257.59 C 358.19 261.93 353.35 266.57 347.00 266.61 M 287.60 262.54 C 287.96 268.27 286.31 273.84 284.58 279.24 C 292.75 283.74 300.66 288.69 308.83 293.20 C 310.11 293.88 311.42 294.61 312.90 294.74 C 320.25 295.67 327.61 296.56 335.00 297.21 C 335.20 301.01 334.50 304.99 335.38 308.68 C 339.34 311.50 344.42 311.39 349.04 311.98 C 353.98 304.96 358.39 297.58 362.20 289.89 C 351.00 285.92 339.84 281.85 328.71 277.71 C 327.46 280.25 325.91 282.62 324.23 284.90 C 320.71 281.61 318.61 276.37 313.46 275.27 C 311.97 273.56 310.77 271.38 308.61 270.44 C 301.63 267.74 294.45 265.54 287.60 262.54 M 86.38 300.64 C 89.07 305.76 92.45 310.48 95.90 315.11 C 97.73 317.76 101.37 317.45 104.13 318.42 C 122.12 322.47 139.99 327.06 158.04 330.82 C 165.39 328.62 172.06 324.63 179.17 321.77 C 183.07 312.30 182.04 300.71 175.55 292.62 C 168.94 284.29 158.06 280.44 147.67 280.44 C 151.78 278.38 155.83 276.17 159.59 273.52 C 154.51 272.11 149.29 271.26 144.26 269.64 C 124.96 279.96 105.89 290.70 86.38 300.64 M 278.80 290.93 C 287.13 291.77 295.43 292.93 303.78 293.64 C 297.26 289.14 289.67 286.34 283.62 281.16 C 282.54 284.66 280.77 287.86 278.80 290.93 M 174.72 334.18 C 179.00 335.63 183.52 336.03 187.94 336.86 C 206.37 339.60 224.64 343.40 243.07 346.20 C 246.96 346.89 250.25 344.30 253.46 342.55 C 271.19 333.33 288.99 324.22 306.54 314.65 C 311.86 311.97 317.23 309.31 322.14 305.91 C 301.09 303.36 280.08 300.34 258.95 298.59 C 230.80 310.26 202.62 321.91 174.72 334.18 M 247.24 348.54 C 247.23 349.21 247.22 350.56 247.21 351.23 C 273.02 338.21 298.22 324.03 324.07 311.07 C 323.98 310.32 323.80 308.82 323.71 308.07 C 298.26 321.63 272.63 334.87 247.24 348.54 M 248.91 352.93 C 247.87 353.43 247.15 354.23 246.73 355.34 C 248.08 354.86 249.41 354.30 250.69 353.65 C 275.19 341.17 299.49 328.29 324.00 315.81 C 324.00 315.14 323.99 313.82 323.99 313.16 C 299.04 326.56 273.86 339.52 248.91 352.93 M 247.22 357.71 C 247.23 358.27 247.26 359.38 247.27 359.94 C 273.03 347.65 298.20 334.18 323.83 321.63 C 323.91 320.45 323.99 319.28 324.07 318.12 C 298.37 331.16 272.95 344.74 247.22 357.71 M 326.25 319.94 C 326.11 322.44 326.08 324.96 326.13 327.47 C 299.52 340.95 273.33 355.22 246.83 368.89 C 220.32 363.77 193.60 359.81 167.00 355.24 C 167.11 348.30 167.01 341.37 167.26 334.44 C 171.15 332.49 174.54 329.60 176.70 325.80 C 171.33 327.87 166.03 330.15 160.82 332.60 C 160.35 341.75 160.26 350.92 160.78 360.07 C 166.50 361.38 172.32 362.18 178.10 363.16 C 200.75 366.77 223.28 371.13 245.99 374.44 C 273.82 360.36 301.31 345.62 328.85 331.01 C 333.72 328.78 338.59 326.07 341.75 321.60 C 336.62 320.75 331.41 320.55 326.25 319.94 M 247.35 362.65 C 247.36 363.43 247.36 364.98 247.36 365.75 C 273.06 352.88 298.73 339.88 323.66 325.57 C 323.83 325.07 324.15 324.07 324.32 323.58 C 298.73 336.72 272.86 349.35 247.35 362.65 M 109.01 330.41 C 112.37 333.88 115.96 337.11 119.54 340.37 C 120.66 338.09 121.79 335.82 122.92 333.55 C 118.31 332.39 113.67 331.36 109.01 330.41 M 125.63 334.09 C 124.40 336.80 123.13 339.50 121.83 342.18 C 128.55 347.60 135.60 352.64 143.14 356.87 C 144.52 351.04 146.10 345.25 147.58 339.45 C 140.29 337.53 132.87 336.17 125.63 334.09 M 169.63 336.39 L 169.21 338.43 C 194.64 342.66 220.01 347.23 245.42 351.52 C 245.32 350.96 245.11 349.84 245.01 349.29 C 219.94 344.72 194.83 340.22 169.63 336.39 M 145.64 358.32 C 147.41 359.24 149.18 360.17 150.95 361.11 C 150.59 354.03 151.31 346.92 150.41 339.86 C 148.78 346.01 147.21 352.17 145.64 358.32 M 169.10 340.41 C 169.19 341.02 169.36 342.25 169.45 342.86 C 194.73 347.43 220.05 351.81 245.37 356.20 C 245.28 355.60 245.11 354.38 245.03 353.77 C 219.81 348.86 194.37 345.08 169.10 340.41 M 169.30 344.96 C 169.29 345.58 169.29 346.81 169.29 347.43 C 174.19 348.00 179.01 349.07 183.87 349.88 C 204.26 353.88 224.90 356.56 245.20 361.02 C 245.20 360.31 245.21 358.88 245.21 358.17 C 219.84 354.13 194.61 349.32 169.30 344.96 M 169.24 349.36 C 169.34 350.38 169.56 352.43 169.66 353.45 C 194.69 357.62 219.65 362.16 244.75 365.93 C 244.84 365.12 245.03 363.50 245.12 362.69 C 219.81 358.37 194.50 354.00 169.24 349.36 Z" />
<path fill="#000000" opacity="1.00" d=" M 45.38 108.48 C 49.86 107.31 54.78 111.41 54.27 116.06 C 53.86 117.56 52.88 118.81 52.16 120.17 C 48.47 117.82 44.81 115.45 41.04 113.23 C 42.35 111.55 43.33 109.37 45.38 108.48 Z" />
<path fill="#000000" opacity="1.00" d=" M 382.35 117.31 C 386.74 116.46 391.07 115.27 395.51 114.65 C 392.68 118.23 389.76 121.74 386.80 125.22 C 385.25 122.62 383.74 120.00 382.35 117.31 Z" />
<path fill="#000000" opacity="1.00" d=" M 30.93 146.75 C 35.36 146.52 39.79 146.83 44.21 147.04 C 43.28 149.87 42.17 152.64 40.82 155.30 C 37.46 152.52 34.17 149.66 30.93 146.75 Z" />
<path fill="#000000" opacity="1.00" d=" M 413.49 188.65 C 417.24 187.87 421.17 188.13 424.82 189.26 C 430.06 191.05 432.13 199.10 427.59 202.69 C 421.64 207.45 413.32 208.42 406.06 206.68 C 402.57 205.46 399.06 201.83 400.23 197.86 C 401.26 191.74 408.27 189.77 413.49 188.65 Z" />
<path fill="#000000" opacity="1.00" d=" M 15.76 227.73 C 22.18 224.48 30.77 223.68 36.80 228.19 C 40.39 230.86 40.44 235.78 40.87 239.82 C 31.40 241.26 21.78 241.61 12.22 241.90 C 11.36 237.06 11.00 230.71 15.76 227.73 Z" />
<path fill="#000000" opacity="1.00" d=" M 339.80 359.09 C 343.86 361.24 347.82 363.58 351.86 365.78 C 349.75 367.87 347.56 369.88 345.28 371.79 C 343.38 367.58 341.61 363.33 339.80 359.09 Z" />
<path fill="#000000" opacity="1.00" d=" M 102.34 376.06 C 105.95 373.40 109.61 370.82 113.22 368.16 C 112.25 372.58 111.07 376.95 109.47 381.19 C 106.94 379.70 104.55 377.99 102.34 376.06 Z" />
<path fill="#000000" opacity="1.00" d=" M 286.97 391.40 C 290.17 394.58 293.04 398.06 296.00 401.46 C 293.26 402.76 290.46 403.91 287.64 405.02 C 287.43 400.48 287.13 395.94 286.97 391.40 Z" />
<path fill="#000000" opacity="1.00" d=" M 196.43 404.51 C 200.10 402.94 203.76 405.87 204.57 409.41 C 205.67 414.40 205.04 419.96 202.34 424.36 C 199.47 428.37 192.44 426.64 191.41 421.93 C 190.39 415.95 190.13 407.72 196.43 404.51 Z" />
</g>
<g id="#ffffffff">
<path fill="#ffffff" opacity="1.00" d=" M 175.50 13.51 C 184.01 11.74 192.70 11.05 201.18 9.18 C 201.62 12.07 202.13 14.96 202.36 17.87 C 200.10 17.40 200.36 14.79 199.47 13.19 C 196.92 12.73 194.26 13.56 191.68 13.67 C 193.20 22.79 194.47 31.95 196.31 41.01 C 197.84 41.52 199.94 41.32 200.59 43.21 C 196.09 44.04 191.57 44.69 187.08 45.56 L 186.75 43.97 C 187.88 43.45 189.01 42.91 190.12 42.36 C 189.03 33.11 187.46 23.93 185.85 14.77 C 183.27 15.08 180.74 15.68 178.26 16.44 C 178.34 18.08 178.42 19.72 178.46 21.37 C 175.57 20.18 176.64 16.03 175.50 13.51 Z" />
<path fill="#ffffff" opacity="1.00" d=" M 161.98 16.98 C 165.01 15.91 168.14 15.09 171.18 14.03 C 171.97 16.00 170.15 16.63 168.75 17.39 C 171.21 27.79 175.11 37.76 178.47 47.88 C 177.06 47.92 175.64 47.97 174.23 48.01 C 165.66 41.90 157.31 35.50 148.77 29.34 C 151.29 36.74 153.15 44.41 156.54 51.49 C 158.10 51.25 160.00 50.51 160.54 52.58 C 157.47 53.60 154.45 54.76 151.35 55.64 C 148.48 55.23 151.84 53.27 152.89 52.74 C 151.58 43.29 147.73 34.46 144.61 25.51 C 143.20 25.48 141.79 25.43 140.38 25.36 C 142.77 22.35 148.49 20.19 151.61 23.39 C 158.42 28.93 165.60 34.00 172.77 39.06 C 170.38 32.12 168.77 24.86 165.38 18.30 C 164.47 18.49 162.65 18.87 161.74 19.06 C 161.80 18.54 161.92 17.50 161.98 16.98 Z" />
<path fill="#ffffff" opacity="1.00" d=" M 226.31 18.27 C 229.88 16.87 234.00 17.22 237.63 18.27 C 244.44 22.12 244.83 31.90 241.06 38.05 C 237.51 45.22 225.30 45.33 221.80 38.07 C 218.26 31.63 219.84 22.25 226.31 18.27 M 229.48 19.58 C 224.94 22.15 224.27 28.21 224.68 32.91 C 224.80 36.71 226.96 41.05 231.09 41.64 C 234.29 41.84 237.02 39.20 237.83 36.24 C 239.18 31.42 239.43 25.79 236.71 21.40 C 235.25 18.95 231.93 18.33 229.48 19.58 Z" />
<path fill="#ffffff" opacity="1.00" d=" M 283.41 20.57 C 282.45 20.34 279.43 18.03 281.88 17.62 C 288.59 19.67 295.23 22.01 301.87 24.31 C 300.58 26.68 300.35 29.96 297.75 31.39 C 297.97 29.89 298.24 28.39 298.56 26.90 C 295.89 25.05 292.82 23.88 289.59 23.47 C 288.34 27.13 286.82 30.68 285.58 34.34 C 288.61 35.54 293.33 38.19 294.97 33.61 L 296.11 34.18 C 294.80 37.55 293.73 41.01 292.34 44.35 C 290.70 43.09 291.78 41.21 292.07 39.60 C 289.78 38.61 287.49 37.51 285.01 37.07 C 282.85 40.74 282.10 45.24 280.57 49.26 C 283.85 50.57 287.17 51.86 290.72 52.16 C 291.83 50.67 292.25 48.07 294.52 47.97 C 293.64 50.69 292.53 53.33 291.49 55.99 C 285.61 54.28 279.88 52.10 274.09 50.13 C 273.05 49.84 272.19 49.28 271.52 48.44 C 272.27 48.27 273.77 47.91 274.52 47.74 C 277.52 38.71 281.96 30.05 283.41 20.57 Z" />
<path fill="#ffffff" opacity="1.00" d=" M 246.61 19.86 C 247.15 19.68 248.24 19.31 248.79 19.12 C 253.65 19.75 258.48 20.59 263.36 21.13 C 262.76 23.30 262.50 25.62 261.23 27.53 C 261.12 26.69 260.91 25.02 260.80 24.19 C 259.50 22.16 256.65 22.42 254.62 21.79 C 253.87 24.89 253.26 28.03 252.82 31.19 C 254.53 31.35 256.25 31.47 257.97 31.54 C 258.55 30.62 259.18 29.72 259.84 28.85 C 259.68 31.58 259.23 34.28 258.91 37.00 L 257.75 37.01 C 257.69 36.03 257.64 35.06 257.58 34.09 C 255.89 33.61 254.19 33.14 252.49 32.70 C 251.80 36.00 251.45 39.35 251.17 42.70 C 252.40 43.39 253.57 44.18 254.72 45.03 C 250.85 44.97 247.06 44.16 243.28 43.51 C 244.23 42.86 245.26 42.36 246.36 42.01 C 247.95 35.14 248.96 28.14 249.80 21.15 C 248.73 20.72 247.67 20.29 246.61 19.86 Z" />
<path fill="#ffffff" opacity="1.00" d=" M 310.84 28.21 C 317.57 32.55 325.67 34.80 331.50 40.47 C 335.03 43.54 335.03 48.84 333.62 52.95 C 332.08 57.23 329.28 61.08 325.70 63.88 C 319.85 68.23 311.32 67.77 305.53 63.54 C 302.56 61.30 298.56 60.50 296.16 57.59 C 296.95 57.54 298.53 57.45 299.32 57.40 C 304.38 49.34 308.88 40.94 313.02 32.37 C 311.96 31.16 310.51 30.01 310.84 28.21 M 318.40 35.59 C 313.61 43.58 309.06 51.72 304.82 60.01 C 308.62 62.99 314.06 65.33 318.67 62.73 C 324.43 58.91 328.75 52.17 328.39 45.09 C 328.27 39.80 322.85 36.93 318.40 35.59 Z" />
<path fill="#ffffff" opacity="1.00" d=" M 111.50 38.62 C 118.15 35.57 124.40 31.74 130.94 28.49 C 131.90 31.09 133.63 33.62 133.11 36.53 C 132.10 35.32 131.19 34.04 130.10 32.91 C 126.93 33.12 124.41 35.42 121.58 36.65 C 123.54 40.09 125.06 43.74 126.78 47.29 C 128.75 46.42 130.77 45.63 132.54 44.38 C 134.93 43.40 131.75 40.64 133.59 39.10 C 135.37 42.31 136.99 45.61 138.86 48.77 L 137.40 49.58 C 136.79 48.75 135.57 47.09 134.96 46.26 C 132.63 47.34 130.34 48.52 128.06 49.70 C 130.23 53.59 132.42 57.46 134.45 61.43 C 137.58 59.87 140.70 58.22 143.42 55.98 C 142.93 54.24 142.43 52.50 141.96 50.76 C 142.39 50.80 143.23 50.89 143.66 50.93 C 144.84 53.19 145.76 55.58 146.95 57.84 C 140.60 61.07 134.64 65.22 127.90 67.57 C 128.01 66.19 129.25 64.74 128.55 63.37 C 124.80 55.09 120.47 47.08 115.73 39.32 C 114.76 39.72 113.80 40.13 112.84 40.53 C 112.39 39.89 111.94 39.26 111.50 38.62 Z" />
<path fill="#ffffff" opacity="1.00" d=" M 95.78 49.25 C 98.75 47.54 100.93 43.46 104.57 43.72 C 103.82 45.30 102.01 47.34 103.56 49.03 C 109.13 55.73 114.20 62.86 120.28 69.12 C 121.77 68.51 123.36 67.74 124.77 69.01 C 121.18 71.88 117.68 74.86 114.01 77.62 C 113.24 75.97 113.70 74.63 115.40 73.60 C 110.86 66.84 105.48 60.67 100.22 54.46 C 102.81 63.87 105.87 73.14 108.77 82.45 C 108.51 82.66 108.00 83.10 107.75 83.31 C 99.14 78.46 90.48 73.67 81.79 68.97 C 86.68 74.86 91.13 81.15 96.45 86.67 C 97.70 88.68 100.89 84.95 101.47 87.90 C 99.09 89.94 96.50 91.74 94.17 93.85 C 93.80 93.51 93.06 92.81 92.69 92.47 C 93.24 91.89 94.34 90.73 94.89 90.15 C 93.48 87.09 91.21 84.59 89.14 81.98 C 85.31 77.19 81.53 72.34 77.41 67.79 C 75.85 68.06 74.05 69.72 72.63 68.03 C 75.42 65.83 78.22 63.64 80.91 61.32 C 88.28 65.73 95.71 70.05 103.51 73.68 C 101.01 65.51 98.92 57.21 95.78 49.25 Z" />
<path fill="#ffffff" opacity="1.00" d=" M 342.41 48.92 C 342.79 48.51 343.55 47.69 343.93 47.28 C 346.86 50.31 350.54 52.53 353.45 55.54 L 353.13 57.29 C 352.06 56.64 351.00 55.98 349.94 55.31 C 344.70 61.02 339.63 66.94 335.37 73.43 C 331.99 79.70 341.80 86.77 346.83 81.89 C 351.89 76.68 356.50 71.02 360.76 65.13 C 360.00 63.58 358.34 61.94 359.89 60.29 C 362.08 62.48 364.58 64.31 366.83 66.43 C 366.89 66.79 366.99 67.52 367.04 67.89 C 365.93 67.52 364.82 67.14 363.72 66.75 C 357.84 72.59 353.26 79.64 347.14 85.24 C 338.24 91.29 323.95 78.79 330.57 69.51 C 335.13 63.36 340.35 57.69 344.66 51.35 C 344.10 50.74 342.98 49.53 342.41 48.92 Z" />
<path fill="#ffffff" opacity="1.00" d=" M 203.56 53.79 C 235.48 50.40 268.31 56.54 296.92 71.07 C 322.74 84.12 345.00 104.04 360.95 128.17 C 378.40 154.33 388.10 185.53 388.85 216.96 C 389.56 247.74 381.65 278.69 366.11 305.29 C 351.06 331.30 328.86 353.13 302.55 367.67 C 276.29 382.31 246.07 389.74 216.01 388.79 C 180.54 387.84 145.55 375.13 117.58 353.33 C 92.13 333.54 72.63 306.24 62.13 275.77 C 51.04 243.85 49.87 208.55 59.03 176.01 C 68.43 141.78 89.05 110.78 116.98 88.88 C 141.76 69.31 172.16 57.03 203.56 53.79 M 205.54 57.79 C 167.95 61.32 131.74 78.31 105.19 105.18 C 80.23 130.06 63.64 163.20 58.86 198.13 C 51.60 247.04 68.36 298.79 102.72 334.33 C 125.74 358.38 156.23 375.21 188.88 381.74 C 204.41 384.65 220.35 385.94 236.10 384.35 C 279.96 380.42 321.92 358.07 349.35 323.57 C 376.42 289.98 389.45 245.37 384.27 202.51 C 380.75 169.09 366.20 137.06 343.88 112.00 C 309.89 73.31 256.78 52.36 205.54 57.79 Z" />
<path fill="#ffffff" opacity="1.00" d=" M 199.48 65.89 C 207.58 64.23 215.88 64.34 224.10 64.44 C 219.13 92.88 213.93 121.28 209.12 149.75 C 207.19 146.49 205.27 143.20 203.82 139.69 C 202.46 139.54 199.67 140.73 199.53 138.59 C 199.49 114.36 199.47 90.12 199.48 65.89 Z" />
<path fill="#ffffff" opacity="1.00" d=" M 226.99 64.41 C 235.49 64.48 243.94 65.67 252.25 67.39 C 242.69 94.03 233.09 120.65 223.26 147.19 C 222.48 146.98 220.92 146.58 220.14 146.37 C 220.07 149.86 217.20 152.20 215.99 155.28 C 217.41 155.52 218.83 155.74 220.25 155.96 C 217.25 163.82 214.46 171.76 211.58 179.66 C 212.21 179.91 213.46 180.42 214.08 180.67 C 217.29 172.34 220.15 163.88 223.35 155.54 C 226.84 155.34 230.35 155.55 233.72 156.58 C 228.47 165.65 223.19 174.71 217.95 183.80 C 218.55 184.12 219.73 184.77 220.33 185.09 C 225.88 175.89 231.09 166.49 236.58 157.25 C 239.39 157.36 242.20 157.36 245.02 157.35 C 248.44 155.34 250.56 151.89 253.02 148.91 C 249.37 148.32 245.67 148.17 241.98 148.01 C 255.41 124.17 269.33 100.61 282.92 76.85 C 291.29 80.44 299.32 84.78 307.00 89.66 C 286.29 114.34 265.53 138.98 244.90 163.73 C 241.90 163.58 238.86 164.00 236.32 165.72 C 237.20 167.07 238.11 168.40 239.05 169.71 C 234.90 176.76 228.77 182.31 223.86 188.80 C 224.36 189.25 225.35 190.15 225.84 190.60 C 230.36 185.30 234.85 179.98 239.28 174.61 C 240.43 175.94 241.65 177.22 242.93 178.43 C 244.85 177.91 246.79 177.50 248.74 177.16 C 249.75 174.71 251.50 172.08 250.56 169.33 C 249.57 167.88 248.10 166.86 246.83 165.69 C 267.59 140.82 288.45 116.03 309.26 91.20 C 317.06 96.45 324.37 102.42 331.04 109.05 C 310.27 126.35 289.62 143.81 268.88 161.15 C 267.80 158.32 266.76 154.02 262.96 154.05 C 258.31 154.16 256.02 159.02 255.13 162.95 C 256.07 165.52 256.72 168.17 257.40 170.82 C 247.86 178.83 238.25 186.74 228.82 194.86 C 229.18 195.42 229.90 196.53 230.26 197.08 C 240.90 188.25 251.44 179.31 262.09 170.49 C 263.17 171.60 264.25 172.71 265.31 173.85 C 265.55 176.59 267.48 178.57 269.18 180.55 C 264.86 183.70 259.15 183.51 254.95 186.93 C 255.04 189.27 252.68 189.98 251.06 191.03 C 244.72 194.68 238.36 198.29 232.05 201.99 C 232.43 202.57 233.20 203.73 233.58 204.30 C 241.77 200.06 249.25 194.51 257.72 190.80 C 259.14 190.15 260.68 189.89 262.21 189.67 C 263.73 185.88 267.86 184.71 271.00 182.66 C 271.08 183.42 271.24 184.93 271.31 185.69 C 273.63 186.57 276.26 187.85 278.70 186.61 C 280.17 186.06 280.37 184.33 280.98 183.10 C 282.68 182.83 284.41 182.81 286.13 182.89 C 289.02 180.84 293.05 181.24 295.45 178.40 C 298.91 176.14 298.22 170.80 295.33 168.36 C 314.72 157.81 333.59 146.34 352.80 135.46 C 357.90 143.68 362.75 152.11 366.19 161.18 C 322.18 176.92 278.38 193.20 234.38 208.96 C 234.64 209.60 235.16 210.87 235.42 211.51 C 279.45 195.76 323.32 179.55 367.31 163.67 C 370.95 172.82 373.54 182.35 375.55 191.98 C 361.05 194.68 346.53 197.33 331.96 199.62 C 327.89 198.64 324.12 196.65 320.76 194.19 C 318.84 192.46 316.12 193.10 313.77 192.92 C 311.66 195.98 311.54 199.85 313.23 203.13 C 287.31 207.58 261.41 212.12 235.53 216.81 C 235.65 217.49 235.89 218.84 236.01 219.51 C 262.30 214.86 288.62 210.31 314.90 205.58 C 315.76 207.16 316.62 208.75 317.50 210.33 C 315.11 211.15 312.68 212.07 310.81 213.84 C 308.39 215.87 307.89 219.34 305.41 221.34 C 303.60 222.84 301.52 224.53 299.03 224.43 C 277.77 224.56 256.50 224.44 235.24 224.49 C 235.24 225.18 235.23 226.54 235.22 227.23 C 256.57 227.23 277.92 227.25 299.27 227.22 C 299.65 229.39 300.36 231.51 301.82 233.21 C 304.68 236.68 305.99 241.05 307.59 245.17 C 300.13 243.86 292.70 242.45 285.23 241.26 C 284.44 239.14 283.60 237.05 282.73 234.98 C 277.86 236.12 273.16 239.28 268.00 238.12 C 257.33 236.40 246.72 234.36 236.07 232.57 C 232.87 232.14 229.99 230.63 226.96 229.64 C 208.70 239.38 190.28 248.80 171.94 258.38 C 170.88 258.02 169.82 257.69 168.76 257.37 C 168.44 258.42 168.12 259.47 167.80 260.52 C 165.42 261.92 162.99 263.40 160.15 263.54 C 161.61 260.40 163.13 257.30 164.66 254.20 C 163.84 253.80 163.01 253.41 162.19 253.02 C 160.59 256.12 159.12 259.30 157.56 262.42 C 154.86 261.71 152.16 260.99 149.45 260.35 C 152.57 256.52 155.67 252.68 158.84 248.90 C 158.33 248.44 157.30 247.50 156.79 247.04 C 153.37 251.20 149.99 255.39 146.54 259.53 C 145.12 259.24 143.70 258.95 142.29 258.67 C 136.08 261.94 129.96 265.37 123.76 268.66 C 133.77 259.89 144.23 251.62 154.22 242.84 C 153.88 242.29 153.19 241.19 152.85 240.65 C 141.29 250.10 129.96 259.84 118.46 269.38 C 115.13 272.08 112.10 275.23 108.26 277.24 C 99.23 282.02 90.27 286.93 81.29 291.81 C 79.36 287.70 77.40 283.60 75.79 279.35 C 100.74 265.00 125.70 250.66 150.60 236.23 C 150.26 235.60 149.59 234.35 149.25 233.72 C 124.46 248.17 99.62 262.52 74.66 276.68 C 72.30 270.54 70.49 264.21 68.74 257.88 C 95.22 247.93 121.82 238.30 148.46 228.80 C 148.00 227.90 147.55 227.00 147.10 226.11 C 120.81 235.91 94.39 245.33 68.06 255.02 C 66.77 248.60 65.89 242.12 65.05 235.63 C 92.39 231.10 119.62 225.84 146.98 221.40 C 146.94 220.69 146.87 219.27 146.83 218.57 C 119.51 223.03 92.31 228.22 65.00 232.79 C 64.01 226.40 64.48 219.92 64.52 213.48 C 92.12 213.49 119.73 213.49 147.33 213.49 C 147.33 212.80 147.33 211.42 147.33 210.73 C 119.84 210.73 92.35 210.75 64.87 210.74 C 65.11 204.37 66.10 198.06 67.15 191.78 C 94.51 196.09 121.71 201.32 149.00 206.02 C 149.13 205.34 149.39 203.97 149.51 203.29 C 122.30 198.24 94.96 193.86 67.78 188.64 C 69.23 182.36 70.82 176.10 72.97 170.02 C 99.20 179.49 125.36 189.15 151.60 198.57 C 152.00 198.03 152.78 196.95 153.18 196.41 C 126.85 186.47 100.34 177.02 73.88 167.43 C 76.12 161.29 78.83 155.33 81.62 149.42 C 106.45 163.54 131.01 178.14 155.90 192.17 C 156.27 191.62 157.03 190.51 157.41 189.95 C 132.64 175.62 107.86 161.32 83.10 146.97 C 86.21 141.00 89.86 135.33 93.65 129.78 C 94.70 130.63 95.75 131.48 96.80 132.34 C 96.74 132.95 96.61 134.17 96.55 134.79 C 97.04 135.21 98.03 136.05 98.53 136.47 C 100.14 134.60 101.41 136.57 102.64 137.35 C 122.26 153.65 141.70 170.17 161.28 186.51 C 161.81 185.80 162.34 185.09 162.88 184.38 C 143.06 167.71 123.40 150.83 103.29 134.50 C 109.64 133.23 111.03 125.70 109.05 120.44 C 106.85 121.84 104.54 123.06 102.46 124.63 C 100.97 126.33 99.73 128.24 98.25 129.95 C 97.29 129.18 96.34 128.40 95.38 127.62 C 99.46 121.99 103.94 116.65 108.90 111.77 C 128.42 135.10 147.97 158.41 167.54 181.70 C 168.02 181.24 168.99 180.33 169.47 179.87 C 149.96 156.45 130.37 133.09 110.70 109.81 C 115.74 104.80 121.20 100.25 126.74 95.82 C 128.03 98.16 129.34 100.49 130.70 102.79 C 127.39 103.39 124.97 105.98 124.10 109.15 C 123.42 111.97 121.07 114.01 120.41 116.80 C 120.92 118.65 122.56 119.90 123.58 121.48 C 125.17 123.42 126.19 126.00 128.44 127.30 C 132.46 129.01 136.85 129.47 141.08 130.36 C 142.04 128.81 143.00 127.28 144.02 125.77 C 153.96 143.39 164.35 160.76 174.25 178.41 C 174.83 177.95 175.99 177.04 176.57 176.58 C 166.53 159.14 156.22 141.85 146.47 124.25 C 148.41 122.33 151.65 120.30 150.47 117.09 C 149.34 112.56 150.06 107.15 146.81 103.41 C 146.24 103.39 145.09 103.36 144.52 103.34 C 141.47 100.69 137.08 100.31 133.63 102.43 C 132.12 99.65 130.53 96.92 128.94 94.19 C 134.98 89.93 141.27 86.03 147.74 82.46 C 158.72 113.69 170.55 144.60 181.56 175.82 C 182.26 175.57 183.65 175.07 184.35 174.82 C 179.19 160.98 174.11 147.09 169.15 133.17 C 170.08 133.98 171.01 134.80 171.93 135.64 C 171.39 138.24 173.26 140.20 174.55 142.20 C 176.96 146.30 181.41 149.32 181.75 154.43 C 183.00 154.11 184.25 153.79 185.50 153.45 C 186.39 160.64 188.06 167.70 189.08 174.87 C 189.77 174.72 191.15 174.43 191.84 174.28 C 190.14 165.77 189.36 157.09 187.15 148.68 C 188.79 149.23 190.40 149.12 191.87 148.20 C 193.32 149.59 193.30 151.03 191.74 152.39 C 193.38 153.05 195.56 153.14 196.69 154.68 C 196.90 161.44 196.70 168.22 196.77 174.99 C 197.45 174.99 198.81 174.99 199.49 174.99 C 199.51 168.78 199.46 162.58 199.50 156.37 C 202.27 155.91 205.07 155.87 207.86 156.15 C 206.68 163.02 205.59 169.91 204.22 176.74 C 204.93 176.79 206.33 176.88 207.04 176.93 C 208.86 168.90 209.46 160.61 211.74 152.69 C 211.69 149.38 212.49 146.15 213.07 142.91 C 217.79 116.76 222.29 90.56 226.99 64.41 Z" />
<path fill="#ffffff" opacity="1.00" d=" M 173.67 71.69 C 181.20 69.15 188.98 67.46 196.81 66.11 C 196.72 87.21 196.77 108.30 196.79 129.40 C 194.29 126.82 191.71 124.31 189.69 121.33 C 189.15 121.35 188.06 121.37 187.51 121.39 C 186.17 123.19 184.83 125.01 183.52 126.83 C 180.19 108.46 177.20 90.02 173.67 71.69 Z" />
<path fill="#ffffff" opacity="1.00" d=" M 255.09 67.85 C 263.69 69.93 272.23 72.39 280.42 75.77 C 266.56 99.56 252.79 123.41 239.10 147.31 C 237.41 146.68 235.74 146.01 234.10 145.28 C 233.38 148.61 228.83 146.33 226.44 146.95 C 235.93 120.56 245.60 94.24 255.09 67.85 Z" />
<path fill="#ffffff" opacity="1.00" d=" M 51.43 92.76 C 57.22 86.41 62.67 79.75 68.00 73.01 C 70.04 75.12 73.65 76.29 73.69 79.70 C 72.14 78.81 70.63 77.86 69.13 76.89 C 67.42 78.69 65.76 80.55 64.13 82.43 C 70.16 87.95 76.52 93.08 82.91 98.17 C 83.89 98.88 84.82 99.75 86.02 100.08 C 86.84 99.52 87.64 98.92 88.43 98.30 C 88.81 98.58 89.56 99.15 89.94 99.43 C 86.80 102.58 83.92 106.00 81.39 109.66 L 79.91 108.76 C 80.38 107.49 80.84 106.22 81.28 104.95 C 74.47 98.75 67.26 93.02 60.30 86.99 C 58.65 89.07 56.97 91.14 55.34 93.24 C 56.45 94.42 57.57 95.60 58.69 96.78 L 57.72 97.93 C 55.60 96.23 53.49 94.52 51.43 92.76 Z" />
<path fill="#ffffff" opacity="1.00" d=" M 150.15 81.21 C 156.92 77.94 163.83 74.94 170.94 72.50 C 174.58 91.24 177.58 110.10 181.06 128.87 C 176.99 130.16 172.55 130.15 168.73 132.21 C 162.53 115.21 156.26 98.24 150.15 81.21 Z" />
<path fill="#ffffff" opacity="1.00" d=" M 354.50 88.44 C 358.33 81.49 366.31 75.93 374.50 77.61 C 381.61 79.21 386.19 85.70 388.68 92.13 C 386.50 93.70 384.35 95.34 382.24 97.01 C 381.81 96.58 381.39 96.16 380.97 95.73 C 382.02 94.71 383.07 93.69 384.13 92.69 C 385.15 84.92 375.64 79.29 369.10 82.98 C 363.16 86.49 357.16 92.45 358.06 99.96 C 358.75 105.57 364.14 108.53 368.64 110.88 C 364.70 112.35 360.77 110.00 357.95 107.37 C 352.99 102.66 350.93 94.55 354.50 88.44 Z" />
<path fill="#ffffff" opacity="1.00" d=" M 44.19 104.18 C 46.29 101.42 50.56 101.90 53.01 103.93 C 56.09 106.19 57.34 110.18 56.69 113.88 C 61.80 113.74 66.90 114.01 72.01 113.97 C 73.84 114.03 75.65 113.01 77.43 113.86 C 76.00 116.04 74.59 118.23 73.26 120.47 C 66.83 119.57 60.33 119.75 53.87 119.20 C 53.43 119.79 52.98 120.38 52.53 120.96 C 57.08 122.84 61.01 125.96 65.51 127.98 C 66.43 127.06 67.37 126.15 68.31 125.26 C 69.64 127.09 67.77 128.62 67.04 130.14 C 65.33 132.80 63.73 135.52 62.10 138.23 C 60.54 136.82 61.50 135.08 61.87 133.49 C 54.05 128.14 46.12 122.94 37.85 118.30 C 37.11 119.15 36.37 120.01 35.64 120.87 C 35.10 120.53 34.57 120.19 34.04 119.85 C 37.48 114.67 40.11 108.93 44.19 104.18 M 45.38 108.48 C 43.33 109.37 42.35 111.55 41.04 113.23 C 44.81 115.45 48.47 117.82 52.16 120.17 C 52.88 118.81 53.86 117.56 54.27 116.06 C 54.78 111.41 49.86 107.31 45.38 108.48 Z" />
<path fill="#ffffff" opacity="1.00" d=" M 270.87 163.18 C 291.47 145.59 312.42 128.40 333.05 110.84 C 339.58 117.83 345.85 125.11 351.20 133.06 C 331.68 144.48 312.08 155.76 292.45 167.01 C 288.83 163.71 285.02 160.02 280.08 158.98 C 276.61 159.35 274.25 162.48 270.87 163.18 Z" />
<path fill="#ffffff" opacity="1.00" d=" M 369.94 116.99 C 381.07 116.14 391.72 112.59 402.68 110.72 C 403.06 111.35 403.81 112.62 404.19 113.26 C 397.21 121.69 390.28 130.16 383.49 138.74 C 384.06 140.36 383.83 141.77 382.80 142.96 C 380.27 139.09 377.85 135.14 375.78 131.00 C 377.53 130.59 378.61 131.97 379.77 133.01 C 381.63 131.09 383.43 129.13 385.16 127.09 C 383.33 124.10 381.57 121.08 379.75 118.10 C 377.09 118.50 374.55 119.39 372.07 120.40 C 372.68 121.93 373.34 123.55 371.99 124.83 C 370.07 121.97 368.28 119.03 366.63 116.00 C 367.92 115.61 369.03 115.94 369.94 116.99 M 382.35 117.31 C 383.74 120.00 385.25 122.62 386.80 125.22 C 389.76 121.74 392.68 118.23 395.51 114.65 C 391.07 115.27 386.74 116.46 382.35 117.31 Z" />
<path fill="#ffffff" opacity="1.00" d=" M 405.25 131.94 C 407.60 130.70 410.02 129.61 412.44 128.50 C 415.58 136.63 418.69 144.78 422.43 152.67 C 419.69 153.61 417.02 154.69 414.30 155.65 C 413.94 153.27 416.79 153.01 418.27 151.97 C 417.62 149.48 416.72 147.06 415.78 144.67 C 407.11 148.13 398.20 151.06 389.93 155.43 C 390.71 157.30 390.36 158.72 388.90 159.70 C 387.27 155.29 385.47 150.96 383.46 146.71 C 385.60 145.72 386.21 148.05 387.33 149.12 C 396.39 146.70 404.65 142.09 413.52 139.12 C 412.43 136.67 411.39 134.19 410.28 131.74 C 408.87 132.28 407.48 132.82 406.09 133.36 C 405.88 133.01 405.46 132.30 405.25 131.94 Z" />
<path fill="#ffffff" opacity="1.00" d=" M 57.45 141.53 C 58.22 140.69 58.99 139.86 59.76 139.03 C 60.01 139.39 60.52 140.10 60.77 140.46 C 59.33 144.41 57.46 148.21 56.10 152.21 C 54.57 151.29 54.16 149.91 54.88 148.06 C 52.27 147.63 49.64 147.41 47.00 147.40 C 45.62 150.62 44.22 153.83 42.90 157.08 C 44.93 158.73 46.98 160.35 49.10 161.90 C 50.20 160.70 51.30 159.50 52.52 158.43 C 52.67 162.12 50.43 165.30 49.26 168.68 C 48.15 167.74 47.66 166.50 47.79 164.96 C 39.99 157.23 31.26 150.52 23.12 143.15 C 23.44 142.60 24.09 141.49 24.41 140.93 C 35.41 140.49 46.44 141.38 57.45 141.53 M 30.93 146.75 C 34.17 149.66 37.46 152.52 40.82 155.30 C 42.17 152.64 43.28 149.87 44.21 147.04 C 39.79 146.83 35.36 146.52 30.93 146.75 Z" />
<path fill="#ffffff" opacity="1.00" d=" M 17.31 162.38 C 20.84 158.40 27.42 159.80 30.69 163.42 C 33.61 166.47 34.37 172.46 30.41 175.02 C 30.20 173.19 30.84 171.10 29.77 169.46 C 27.38 165.94 21.96 164.96 18.52 167.47 C 17.69 168.96 17.51 170.69 17.08 172.31 C 26.24 174.76 35.37 177.33 44.69 179.08 C 45.52 177.53 45.71 174.88 48.19 175.71 C 47.02 180.30 45.74 184.86 44.52 189.44 C 42.89 188.55 42.97 186.65 42.68 185.07 C 33.70 182.57 24.68 180.16 15.55 178.26 C 14.99 180.02 13.83 181.16 12.06 181.66 C 13.91 175.27 14.59 168.48 17.31 162.38 Z" />
<path fill="#ffffff" opacity="1.00" d=" M 422.36 161.10 L 424.45 160.50 C 425.51 164.68 426.87 168.78 427.88 172.98 C 427.40 173.23 426.44 173.74 425.96 173.99 C 425.73 173.17 425.28 171.52 425.06 170.70 C 415.55 172.51 406.15 174.94 397.00 178.11 C 397.64 179.95 397.17 181.27 395.59 182.07 C 394.26 177.71 393.02 173.31 392.09 168.85 C 393.93 168.69 394.79 170.25 395.72 171.54 C 404.88 169.33 414.17 167.43 423.04 164.21 C 422.87 163.43 422.53 161.87 422.36 161.10 Z" />
<path fill="#ffffff" opacity="1.00" d=" M 407.56 183.74 C 413.94 181.80 421.61 181.61 427.18 185.77 C 432.29 189.72 433.44 196.97 432.11 202.97 C 430.93 207.90 426.35 211.24 421.63 212.43 C 416.77 213.61 411.53 213.68 406.74 212.17 C 397.93 208.84 394.66 196.52 400.04 188.98 C 401.83 186.41 404.64 184.75 407.56 183.74 M 413.49 188.65 C 408.27 189.77 401.26 191.74 400.23 197.86 C 399.06 201.83 402.57 205.46 406.06 206.68 C 413.32 208.42 421.64 207.45 427.59 202.69 C 432.13 199.10 430.06 191.05 424.82 189.26 C 421.17 188.13 417.24 187.87 413.49 188.65 Z" />
<path fill="#ffffff" opacity="1.00" d=" M 10.62 191.61 C 13.25 192.38 16.58 192.03 18.53 194.23 C 16.85 194.39 15.17 194.49 13.48 194.56 C 12.93 197.66 12.49 200.79 12.01 203.91 C 16.01 204.42 20.00 205.03 24.01 205.38 C 24.35 202.81 24.53 200.22 24.57 197.63 C 23.00 197.05 20.68 197.13 20.68 194.90 C 24.20 195.38 27.82 195.51 31.25 196.35 C 31.44 196.65 31.80 197.26 31.99 197.57 C 30.56 197.68 29.12 197.77 27.69 197.84 C 27.16 200.31 26.94 202.83 26.81 205.35 C 31.18 205.78 35.55 206.31 39.95 206.56 C 40.43 203.08 40.60 199.56 40.28 196.06 C 38.66 195.54 37.05 195.03 35.44 194.51 C 37.16 191.78 40.95 194.21 43.56 194.10 C 43.73 200.11 42.81 206.05 42.43 212.03 C 42.42 213.22 42.07 214.38 41.56 215.45 C 40.89 214.55 40.22 213.65 39.56 212.75 C 30.22 211.56 20.85 210.46 11.42 210.28 C 11.21 211.97 10.36 213.09 8.88 213.64 C 8.91 206.27 9.72 198.92 10.62 191.61 Z" />
<path fill="#ffffff" opacity="1.00" d=" M 336.72 201.80 C 349.80 199.40 362.94 197.32 376.00 194.77 C 377.62 204.58 378.24 214.54 378.07 224.48 C 372.81 224.49 367.55 224.49 362.28 224.49 C 361.83 224.06 360.94 223.19 360.49 222.76 C 358.80 222.93 357.12 223.09 355.44 223.24 C 354.81 220.24 355.75 217.08 354.83 214.17 C 351.81 211.54 349.36 208.15 346.00 205.97 C 342.61 205.26 339.58 203.71 336.72 201.80 Z" />
<path fill="#ffffff" opacity="1.00" d=" M 400.13 216.92 C 402.40 216.79 402.03 219.05 402.33 220.62 C 411.80 222.20 421.40 222.78 430.99 223.01 C 431.25 221.82 431.50 220.63 431.75 219.44 L 433.60 219.54 C 433.30 222.58 433.00 225.62 432.88 228.67 C 424.32 233.68 415.68 238.57 407.48 244.16 C 414.72 244.21 421.92 245.12 429.16 245.28 C 429.99 244.14 429.96 240.00 431.99 241.98 C 431.98 245.24 431.43 248.48 431.37 251.75 C 430.94 251.74 430.09 251.72 429.66 251.71 C 429.45 250.56 429.25 249.42 429.05 248.28 C 418.56 246.62 407.91 246.66 397.34 245.94 C 397.75 244.55 398.17 243.17 398.60 241.79 C 407.76 236.36 416.78 230.71 425.83 225.09 C 417.95 224.77 410.08 224.36 402.21 223.98 C 401.56 225.30 401.68 227.39 399.75 227.65 C 400.00 224.07 400.03 220.50 400.13 216.92 Z" />
<path fill="#ffffff" opacity="1.00" d=" M 14.61 221.65 C 23.16 216.43 35.95 219.16 40.91 228.07 C 43.69 234.39 43.01 241.50 43.41 248.22 C 42.72 247.74 41.34 246.78 40.65 246.30 C 31.34 246.48 21.99 246.96 12.76 248.39 C 12.22 249.87 12.16 251.87 10.25 252.19 C 10.61 244.38 7.81 236.63 9.37 228.87 C 9.97 225.83 11.84 223.11 14.61 221.65 M 15.76 227.73 C 11.00 230.71 11.36 237.06 12.22 241.90 C 21.78 241.61 31.40 241.26 40.87 239.82 C 40.44 235.78 40.39 230.86 36.80 228.19 C 30.77 223.68 22.18 224.48 15.76 227.73 Z" />
<path fill="#ffffff" opacity="1.00" d=" M 363.78 227.27 C 368.54 227.22 373.29 227.25 378.05 227.24 C 377.58 237.18 376.32 247.09 374.06 256.78 C 370.65 256.27 367.24 255.71 363.86 255.07 C 368.04 251.97 373.81 248.57 373.25 242.52 C 369.56 240.20 367.57 236.22 365.41 232.60 C 364.39 231.00 364.07 229.11 363.78 227.27 Z" />
<path fill="#ffffff" opacity="1.00" d=" M 239.46 235.96 C 248.08 237.58 256.74 238.95 265.35 240.63 C 259.93 242.19 254.71 244.48 249.19 245.68 C 244.31 244.59 243.02 238.85 239.46 235.96 Z" />
<path fill="#ffffff" opacity="1.00" d=" M 155.98 278.86 C 179.58 265.78 203.85 253.95 227.82 241.56 C 234.21 244.13 238.69 250.43 239.28 257.26 C 239.03 258.66 237.19 258.89 236.10 259.40 C 218.17 264.92 200.30 270.65 182.43 276.37 C 194.68 286.39 197.59 305.81 188.71 318.91 C 185.89 323.08 182.36 326.85 177.92 329.31 C 180.18 324.34 183.18 319.50 183.37 313.88 C 185.18 301.19 177.93 287.94 166.48 282.30 C 163.20 280.54 159.54 279.79 155.98 278.86 Z" />
<path fill="#ffffff" opacity="1.00" d=" M 286.15 244.12 C 293.58 245.72 301.11 246.74 308.56 248.22 C 309.91 254.76 310.61 261.44 310.18 268.12 C 302.84 265.36 295.51 262.55 288.04 260.15 C 287.82 254.76 287.38 249.38 286.15 244.12 Z" />
<path fill="#ffffff" opacity="1.00" d=" M 203.74 271.86 C 227.99 264.02 252.35 256.54 276.55 248.57 C 279.87 263.23 275.79 279.44 265.55 290.51 C 263.58 292.55 261.56 294.69 258.97 295.95 C 234.54 306.32 210.31 317.18 185.53 326.69 C 198.50 314.00 199.38 291.37 187.32 277.79 C 192.52 275.10 198.16 273.52 203.74 271.86 Z" />
<path fill="#ffffff" opacity="1.00" d=" M 347.00 266.61 C 353.35 266.57 358.19 261.93 362.25 257.59 C 365.90 258.26 369.55 259.02 373.23 259.55 C 371.12 269.24 367.38 278.45 363.42 287.51 C 352.65 283.35 341.64 279.80 330.94 275.45 C 333.11 274.55 335.39 273.95 337.55 273.01 C 340.69 270.90 342.81 266.69 347.00 266.61 Z" />
<path fill="#ffffff" opacity="1.00" d=" M 287.60 262.54 C 294.45 265.54 301.63 267.74 308.61 270.44 C 310.77 271.38 311.97 273.56 313.46 275.27 C 318.61 276.37 320.71 281.61 324.23 284.90 C 325.91 282.62 327.46 280.25 328.71 277.71 C 339.84 281.85 351.00 285.92 362.20 289.89 C 358.39 297.58 353.98 304.96 349.04 311.98 C 344.42 311.39 339.34 311.50 335.38 308.68 C 334.50 304.99 335.20 301.01 335.00 297.21 C 327.61 296.56 320.25 295.67 312.90 294.74 C 311.42 294.61 310.11 293.88 308.83 293.20 C 300.66 288.69 292.75 283.74 284.58 279.24 C 286.31 273.84 287.96 268.27 287.60 262.54 Z" />
<path fill="#ffffff" opacity="1.00" d=" M 86.38 300.64 C 105.89 290.70 124.96 279.96 144.26 269.64 C 149.29 271.26 154.51 272.11 159.59 273.52 C 155.83 276.17 151.78 278.38 147.67 280.44 C 158.06 280.44 168.94 284.29 175.55 292.62 C 182.04 300.71 183.07 312.30 179.17 321.77 C 172.06 324.63 165.39 328.62 158.04 330.82 C 139.99 327.06 122.12 322.47 104.13 318.42 C 101.37 317.45 97.73 317.76 95.90 315.11 C 92.45 310.48 89.07 305.76 86.38 300.64 Z" />
<path fill="#ffffff" opacity="1.00" d=" M 35.44 275.58 C 41.23 273.09 48.48 277.74 48.41 284.09 C 49.07 291.34 39.57 296.59 33.76 292.23 C 27.46 288.68 28.66 277.86 35.44 275.58 Z" />
<path fill="#ffffff" opacity="1.00" d=" M 399.41 276.41 C 405.42 273.06 413.78 278.02 413.41 284.98 C 413.34 292.12 404.26 296.61 398.52 292.36 C 392.63 288.83 393.42 279.40 399.41 276.41 Z" />
<path fill="#ffffff" opacity="1.00" d=" M 278.80 290.93 C 280.77 287.86 282.54 284.66 283.62 281.16 C 289.67 286.34 297.26 289.14 303.78 293.64 C 295.43 292.93 287.13 291.77 278.80 290.93 Z" />
<path fill="#ffffff" opacity="1.00" d=" M 174.72 334.18 C 202.62 321.91 230.80 310.26 258.95 298.59 C 280.08 300.34 301.09 303.36 322.14 305.91 C 317.23 309.31 311.86 311.97 306.54 314.65 C 288.99 324.22 271.19 333.33 253.46 342.55 C 250.25 344.30 246.96 346.89 243.07 346.20 C 224.64 343.40 206.37 339.60 187.94 336.86 C 183.52 336.03 179.00 335.63 174.72 334.18 Z" />
<path fill="#ffffff" opacity="1.00" d=" M 247.24 348.54 C 272.63 334.87 298.26 321.63 323.71 308.07 C 323.80 308.82 323.98 310.32 324.07 311.07 C 298.22 324.03 273.02 338.21 247.21 351.23 C 247.22 350.56 247.23 349.21 247.24 348.54 Z" />
<path fill="#ffffff" opacity="1.00" d=" M 248.91 352.93 C 273.86 339.52 299.04 326.56 323.99 313.16 C 323.99 313.82 324.00 315.14 324.00 315.81 C 299.49 328.29 275.19 341.17 250.69 353.65 C 249.41 354.30 248.08 354.86 246.73 355.34 C 247.15 354.23 247.87 353.43 248.91 352.93 Z" />
<path fill="#ffffff" opacity="1.00" d=" M 247.22 357.71 C 272.95 344.74 298.37 331.16 324.07 318.12 C 323.99 319.28 323.91 320.45 323.83 321.63 C 298.20 334.18 273.03 347.65 247.27 359.94 C 247.26 359.38 247.23 358.27 247.22 357.71 Z" />
<path fill="#ffffff" opacity="1.00" d=" M 365.49 318.85 C 365.92 319.06 366.80 319.48 367.23 319.69 C 366.75 320.66 366.26 321.63 365.79 322.61 C 373.13 328.88 381.03 334.48 389.18 339.66 C 389.95 338.80 390.73 337.93 391.51 337.07 C 391.84 337.47 392.51 338.27 392.84 338.67 C 390.30 342.10 387.71 345.49 385.30 349.02 C 384.78 348.55 384.26 348.08 383.75 347.61 C 384.13 346.96 384.89 345.66 385.27 345.01 C 377.78 338.96 370.15 333.05 361.95 327.98 C 360.87 329.28 359.79 331.02 357.99 329.50 C 360.68 326.09 363.16 322.51 365.49 318.85 Z" />
<path fill="#ffffff" opacity="1.00" d=" M 326.25 319.94 C 331.41 320.55 336.62 320.75 341.75 321.60 C 338.59 326.07 333.72 328.78 328.85 331.01 C 301.31 345.62 273.82 360.36 245.99 374.44 C 223.28 371.13 200.75 366.77 178.10 363.16 C 172.32 362.18 166.50 361.38 160.78 360.07 C 160.26 350.92 160.35 341.75 160.82 332.60 C 166.03 330.15 171.33 327.87 176.70 325.80 C 174.54 329.60 171.15 332.49 167.26 334.44 C 167.01 341.37 167.11 348.30 167.00 355.24 C 193.60 359.81 220.32 363.77 246.83 368.89 C 273.33 355.22 299.52 340.95 326.13 327.47 C 326.08 324.96 326.11 322.44 326.25 319.94 Z" />
<path fill="#ffffff" opacity="1.00" d=" M 64.85 334.10 C 64.35 326.89 73.88 320.87 80.07 324.94 C 84.08 327.25 86.36 331.56 87.55 335.89 C 85.37 337.11 83.22 338.39 81.18 339.84 C 80.77 339.50 80.36 339.16 79.96 338.83 C 81.19 337.62 82.42 336.42 83.63 335.20 C 83.01 333.04 82.71 330.56 80.86 329.05 C 78.18 326.33 73.09 327.60 71.66 331.03 C 71.14 336.31 76.33 340.63 74.97 346.01 C 71.78 352.84 60.84 355.35 55.83 349.18 C 53.18 346.44 51.89 342.76 51.14 339.10 C 53.80 337.51 56.30 335.60 59.25 334.58 C 58.36 337.29 54.85 338.77 55.37 341.97 C 55.68 345.67 58.97 349.73 63.00 349.03 C 65.01 348.38 67.35 347.21 67.82 344.95 C 68.49 341.02 65.89 337.69 64.85 334.10 Z" />
<path fill="#ffffff" opacity="1.00" d=" M 247.35 362.65 C 272.86 349.35 298.73 336.72 324.32 323.58 C 324.15 324.07 323.83 325.07 323.66 325.57 C 298.73 339.88 273.06 352.88 247.36 365.75 C 247.36 364.98 247.36 363.43 247.35 362.65 Z" />
<path fill="#ffffff" opacity="1.00" d=" M 109.01 330.41 C 113.67 331.36 118.31 332.39 122.92 333.55 C 121.79 335.82 120.66 338.09 119.54 340.37 C 115.96 337.11 112.37 333.88 109.01 330.41 Z" />
<path fill="#ffffff" opacity="1.00" d=" M 354.68 333.42 C 356.96 330.55 357.36 335.45 355.44 336.45 C 360.76 342.15 366.80 347.10 372.60 352.30 C 373.93 353.51 375.36 354.60 376.93 355.47 C 377.45 354.93 378.48 353.86 379.00 353.33 C 379.41 353.74 380.24 354.57 380.65 354.98 C 377.64 358.10 374.84 361.41 371.92 364.61 C 371.56 364.25 370.83 363.53 370.47 363.18 C 371.05 362.18 372.98 360.68 371.40 359.60 C 364.90 353.17 358.12 347.00 351.02 341.25 C 350.31 341.79 348.88 342.89 348.17 343.43 C 347.81 342.87 347.45 342.31 347.10 341.76 C 349.82 339.16 352.11 336.17 354.68 333.42 Z" />
<path fill="#ffffff" opacity="1.00" d=" M 125.63 334.09 C 132.87 336.17 140.29 337.53 147.58 339.45 C 146.10 345.25 144.52 351.04 143.14 356.87 C 135.60 352.64 128.55 347.60 121.83 342.18 C 123.13 339.50 124.40 336.80 125.63 334.09 Z" />
<path fill="#ffffff" opacity="1.00" d=" M 169.63 336.39 C 194.83 340.22 219.94 344.72 245.01 349.29 C 245.11 349.84 245.32 350.96 245.42 351.52 C 220.01 347.23 194.64 342.66 169.21 338.43 L 169.63 336.39 Z" />
<path fill="#ffffff" opacity="1.00" d=" M 85.53 345.14 C 87.37 342.92 89.36 340.84 91.15 338.59 C 97.25 344.78 103.67 350.65 110.19 356.40 C 108.14 358.50 106.14 360.66 103.85 362.51 C 103.06 360.27 105.31 358.81 106.25 357.09 C 104.45 355.35 102.63 353.62 100.83 351.87 C 94.45 358.75 87.54 365.20 81.94 372.77 C 82.41 373.98 85.80 376.04 82.68 376.49 C 79.30 373.72 76.20 370.61 73.04 367.59 C 73.79 364.58 76.53 368.68 78.03 367.14 C 84.44 360.93 90.36 354.22 96.42 347.67 C 94.64 346.06 92.99 344.22 90.85 343.07 C 88.76 342.75 87.89 346.41 85.53 345.14 Z" />
<path fill="#ffffff" opacity="1.00" d=" M 145.64 358.32 C 147.21 352.17 148.78 346.01 150.41 339.86 C 151.31 346.92 150.59 354.03 150.95 361.11 C 149.18 360.17 147.41 359.24 145.64 358.32 Z" />
<path fill="#ffffff" opacity="1.00" d=" M 169.10 340.41 C 194.37 345.08 219.81 348.86 245.03 353.77 C 245.11 354.38 245.28 355.60 245.37 356.20 C 220.05 351.81 194.73 347.43 169.45 342.86 C 169.36 342.25 169.19 341.02 169.10 340.41 Z" />
<path fill="#ffffff" opacity="1.00" d=" M 169.30 344.96 C 194.61 349.32 219.84 354.13 245.21 358.17 C 245.21 358.88 245.20 360.31 245.20 361.02 C 224.90 356.56 204.26 353.88 183.87 349.88 C 179.01 349.07 174.19 348.00 169.29 347.43 C 169.29 346.81 169.29 345.58 169.30 344.96 Z" />
<path fill="#ffffff" opacity="1.00" d=" M 169.24 349.36 C 194.50 354.00 219.81 358.37 245.12 362.69 C 245.03 363.50 244.84 365.12 244.75 365.93 C 219.65 362.16 194.69 357.62 169.66 353.45 C 169.56 352.43 169.34 350.38 169.24 349.36 Z" />
<path fill="#ffffff" opacity="1.00" d=" M 334.86 353.07 C 335.49 352.40 336.14 351.74 336.82 351.11 C 346.63 356.00 356.05 361.64 365.94 366.36 C 367.50 365.97 369.09 365.79 370.70 365.82 C 367.55 369.19 363.88 372.01 360.58 375.22 C 360.20 374.88 359.45 374.18 359.08 373.84 C 359.86 372.99 360.65 372.15 361.43 371.31 C 359.09 369.82 356.67 368.44 354.26 367.08 C 351.74 369.54 349.12 371.88 346.52 374.24 C 347.51 376.70 348.73 379.06 350.18 381.29 C 351.26 380.60 352.34 379.92 353.43 379.25 L 353.82 380.98 C 351.68 383.39 349.18 385.45 346.71 387.51 C 345.86 385.92 346.92 384.42 347.60 383.02 C 343.44 373.00 339.10 363.05 334.86 353.07 M 339.80 359.09 C 341.61 363.33 343.38 367.58 345.28 371.79 C 347.56 369.88 349.75 367.87 351.86 365.78 C 347.82 363.58 343.86 361.24 339.80 359.09 Z" />
<path fill="#ffffff" opacity="1.00" d=" M 322.14 363.98 C 324.80 361.82 327.84 360.24 330.68 358.36 C 330.87 358.71 331.26 359.42 331.45 359.77 C 330.84 360.51 330.24 361.26 329.64 362.01 C 333.04 372.07 336.09 382.26 340.22 392.05 C 339.31 392.71 338.42 393.37 337.52 394.04 C 331.38 388.35 324.68 383.32 318.36 377.84 C 320.03 386.11 321.69 394.39 323.71 402.59 C 323.02 402.95 321.63 403.67 320.94 404.04 C 314.19 396.80 307.85 389.18 300.76 382.28 C 299.57 380.45 297.05 381.93 295.75 380.25 C 299.52 377.88 303.22 375.41 307.06 373.15 C 307.61 374.67 306.69 375.72 305.60 376.65 C 305.62 377.05 305.66 377.87 305.68 378.27 C 310.31 382.96 314.42 388.12 318.99 392.86 C 317.17 384.86 315.67 376.78 313.75 368.80 C 314.09 368.39 314.77 367.56 315.11 367.15 C 321.21 372.68 327.68 377.76 334.15 382.85 C 332.03 376.98 330.11 371.03 327.74 365.26 C 326.89 362.84 323.86 365.32 322.14 363.98 Z" />
<path fill="#ffffff" opacity="1.00" d=" M 94.02 379.03 C 102.08 373.35 110.20 367.76 118.23 362.03 C 119.03 362.57 119.82 363.12 120.62 363.67 C 117.77 374.47 114.52 385.15 111.57 395.92 C 112.08 396.47 113.12 397.57 113.63 398.12 L 112.08 398.81 C 108.45 396.50 105.06 393.84 101.48 391.47 C 102.86 390.20 104.33 390.26 105.88 391.62 C 106.91 389.11 107.83 386.56 108.61 383.97 C 105.75 381.90 102.89 379.83 99.98 377.84 C 97.85 379.39 95.80 381.06 93.93 382.93 C 94.87 384.14 95.89 385.32 96.35 386.83 C 92.86 385.56 89.98 383.16 87.08 380.92 C 89.38 380.15 92.07 380.74 94.02 379.03 M 102.34 376.06 C 104.55 377.99 106.94 379.70 109.47 381.19 C 111.07 376.95 112.25 372.58 113.22 368.16 C 109.61 370.82 105.95 373.40 102.34 376.06 Z" />
<path fill="#ffffff" opacity="1.00" d=" M 129.29 369.82 C 136.68 374.60 144.63 378.40 152.47 382.34 C 150.66 384.70 149.78 388.04 146.97 389.42 C 147.36 387.53 147.89 385.68 148.56 383.87 C 146.47 382.58 144.32 381.37 142.14 380.24 C 137.56 388.43 132.80 396.54 129.10 405.18 C 130.09 405.90 131.08 406.63 132.06 407.36 C 131.70 407.72 130.98 408.43 130.62 408.78 C 126.81 406.60 122.95 404.48 118.94 402.69 C 119.20 402.29 119.73 401.49 120.00 401.08 C 120.79 401.32 122.38 401.79 123.17 402.02 C 128.14 394.09 132.49 385.78 136.61 377.38 C 134.35 376.20 132.05 375.11 129.69 374.18 C 128.43 375.54 127.92 378.41 125.44 377.74 C 126.66 375.07 128.00 372.46 129.29 369.82 Z" />
<path fill="#ffffff" opacity="1.00" d=" M 284.33 383.71 C 284.99 383.42 286.32 382.84 286.98 382.55 C 294.33 390.61 301.47 398.86 308.88 406.86 C 310.53 406.80 312.02 407.25 313.34 408.22 C 309.06 410.13 304.65 411.73 300.30 413.47 C 299.87 411.57 302.62 410.79 302.09 409.04 C 301.10 406.86 299.16 405.32 297.61 403.54 C 294.42 404.86 291.17 406.07 288.00 407.45 C 288.25 409.93 288.62 412.39 289.02 414.85 C 290.59 414.95 292.28 414.96 293.40 416.25 C 290.52 417.47 287.65 418.76 284.67 419.71 L 283.26 418.87 C 287.15 417.29 285.72 413.26 285.72 410.08 C 285.25 401.29 284.81 392.50 284.33 383.71 M 286.97 391.40 C 287.13 395.94 287.43 400.48 287.64 405.02 C 290.46 403.91 293.26 402.76 296.00 401.46 C 293.04 398.06 290.17 394.58 286.97 391.40 Z" />
<path fill="#ffffff" opacity="1.00" d=" M 154.68 383.30 C 161.93 385.01 168.86 387.79 175.99 389.91 C 174.97 392.24 173.97 394.58 173.11 396.98 L 171.73 396.54 C 172.09 395.09 172.26 393.63 172.25 392.18 C 169.54 390.74 166.59 389.85 163.68 388.92 C 162.41 392.71 161.02 396.47 159.77 400.28 C 162.12 401.02 164.43 402.37 166.96 402.19 C 168.10 401.17 168.52 399.29 170.31 399.21 C 168.78 402.77 168.95 407.86 165.41 410.03 C 165.60 408.90 165.96 406.66 166.14 405.53 C 163.86 404.38 161.45 403.52 159.01 402.81 C 157.56 406.94 156.23 411.13 154.84 415.29 C 158.10 416.49 161.37 417.74 164.84 418.22 C 166.04 416.49 166.56 413.65 169.18 413.72 C 168.22 416.41 167.12 419.04 166.03 421.67 C 159.01 420.40 152.54 417.19 145.59 415.65 C 147.15 414.30 149.44 413.40 149.89 411.16 C 152.60 403.10 155.89 395.20 157.54 386.83 C 156.39 385.83 154.60 385.15 154.68 383.30 Z" />
<path fill="#ffffff" opacity="1.00" d=" M 259.55 391.39 C 263.91 390.50 268.26 389.57 272.58 388.48 C 272.70 389.06 272.96 390.21 273.08 390.79 C 272.30 390.97 270.75 391.33 269.97 391.52 C 271.55 400.92 273.63 410.23 275.83 419.50 C 277.02 419.49 278.21 419.49 279.41 419.49 C 279.49 419.97 279.66 420.93 279.75 421.40 C 275.59 422.08 271.51 423.65 267.30 423.77 L 265.81 423.01 C 267.05 422.24 268.31 421.51 269.59 420.80 C 269.05 416.27 268.11 411.81 267.04 407.38 C 262.60 408.16 258.17 409.02 253.77 410.00 C 254.90 414.65 255.81 419.35 256.99 423.98 C 257.85 423.86 259.55 423.63 260.41 423.51 L 260.81 425.38 C 256.59 426.42 252.33 427.22 248.08 428.11 C 247.92 427.64 247.60 426.70 247.44 426.22 C 248.22 425.96 249.78 425.43 250.56 425.16 C 249.32 415.70 247.12 406.40 244.63 397.20 C 243.07 396.95 240.90 397.39 240.73 395.24 C 245.17 394.42 249.61 393.61 254.01 392.56 C 253.98 394.40 253.01 395.50 251.10 395.86 C 251.65 399.64 252.23 403.44 253.20 407.14 C 257.69 406.46 262.11 405.43 266.51 404.36 C 265.55 400.65 264.74 396.92 263.79 393.21 C 262.20 393.04 260.31 393.14 259.55 391.39 Z" />
<path fill="#ffffff" opacity="1.00" d=" M 193.23 403.27 C 198.42 401.18 205.61 402.67 208.42 407.86 C 211.09 413.40 209.82 420.35 206.01 425.05 C 200.94 430.89 189.79 429.31 187.04 421.91 C 184.80 415.36 186.71 406.61 193.23 403.27 M 196.43 404.51 C 190.13 407.72 190.39 415.95 191.41 421.93 C 192.44 426.64 199.47 428.37 202.34 424.36 C 205.04 419.96 205.67 414.40 204.57 409.41 C 203.76 405.87 200.10 402.94 196.43 404.51 Z" />
<path fill="#ffffff" opacity="1.00" d=" M 213.49 404.14 C 219.01 403.83 224.54 404.06 230.07 403.99 C 229.64 405.97 230.33 408.49 228.65 409.98 C 228.39 408.73 228.11 407.49 227.81 406.26 C 225.64 405.84 223.42 406.01 221.23 405.99 C 221.23 408.99 221.24 412.00 221.24 415.01 C 222.94 415.00 224.63 414.99 226.33 414.99 C 226.67 413.83 226.98 412.61 228.11 411.99 C 228.28 414.82 228.31 417.68 228.10 420.52 C 227.00 417.59 224.46 416.35 221.41 416.82 C 221.46 420.37 221.43 423.94 221.80 427.48 C 222.53 427.49 224.00 427.51 224.74 427.51 C 224.76 427.87 224.81 428.57 224.83 428.92 C 221.11 428.99 217.38 429.12 213.67 428.81 C 214.30 427.55 215.71 427.47 216.92 427.18 C 216.96 420.24 217.26 413.28 216.60 406.36 C 215.54 405.65 214.50 404.90 213.49 404.14 Z" />
</g>
</svg>
