<?xml version="1.0" encoding="UTF-8" ?>
<!DOCTYPE svg PUBLIC "-//W3C//DTD SVG 1.1//EN" "http://www.w3.org/Graphics/SVG/1.1/DTD/svg11.dtd">
<svg width="938pt" height="1000pt" viewBox="0 0 938 1000" version="1.1" xmlns="http://www.w3.org/2000/svg">
<g id="#428bcaff">
<path fill="#428bca" opacity="1.00" d=" M 108.87 43.82 C 132.26 34.07 157.80 30.84 182.99 30.98 C 369.66 31.00 556.33 31.04 743.00 30.96 C 766.35 31.20 790.08 31.76 812.68 38.33 C 883.11 59.38 938.23 128.53 937.02 202.98 C 937.01 399.66 936.95 596.33 937.04 793.01 C 937.26 809.52 935.62 826.12 930.92 842.00 C 918.87 887.14 886.12 925.01 846.10 948.15 C 820.87 962.15 791.87 969.51 763.01 969.04 C 566.34 968.92 369.66 969.07 172.98 968.97 C 147.13 969.06 121.27 963.27 98.02 951.96 C 69.74 937.96 45.86 915.88 28.16 889.88 C 12.13 867.15 3.61 839.90 0.00 812.52 L 0.00 188.64 C 1.67 176.70 3.99 164.84 7.42 153.27 C 15.55 126.82 31.04 103.01 50.34 83.33 C 67.26 66.86 86.67 52.34 108.87 43.82 M 228.46 188.54 C 189.12 189.00 154.60 225.76 156.90 265.02 C 156.50 295.39 177.65 323.74 205.68 334.33 C 216.65 338.21 228.47 339.97 240.06 338.23 C 272.98 335.46 300.84 307.07 305.76 274.87 C 306.99 259.36 305.92 242.77 297.95 229.02 C 284.83 203.99 257.01 186.61 228.46 188.54 M 592.45 371.60 C 561.71 374.38 531.70 385.80 507.50 405.06 C 506.52 399.58 505.74 393.46 501.85 389.15 C 497.02 384.82 490.36 383.31 484.02 383.89 C 449.00 384.17 413.98 383.81 378.96 384.04 C 369.99 383.94 360.81 386.93 354.38 393.35 C 351.23 397.10 352.56 402.51 351.97 406.97 C 352.01 533.65 352.03 660.35 351.96 787.03 C 352.51 791.21 351.30 796.26 354.06 799.91 C 360.96 809.04 372.89 812.69 383.97 811.97 C 418.97 811.94 453.99 812.25 488.98 811.83 C 494.50 812.30 500.11 809.78 502.95 804.96 C 507.49 800.11 506.64 793.05 507.00 787.03 C 507.02 718.68 507.00 650.33 506.97 581.99 C 506.95 559.62 509.81 535.89 523.23 517.23 C 529.95 507.79 540.42 501.98 551.08 498.09 C 566.27 493.12 582.79 493.97 598.32 496.69 C 606.28 498.70 614.57 503.13 617.95 511.01 C 624.01 523.33 625.32 537.44 625.06 551.00 C 625.06 630.99 624.77 710.99 625.18 790.98 C 624.13 802.23 634.96 810.29 645.02 811.84 C 680.34 812.35 715.68 811.75 751.01 812.09 C 757.80 811.36 765.98 813.43 771.78 808.79 C 776.13 805.07 780.27 800.10 780.02 794.04 C 780.01 704.02 779.96 614.00 780.03 523.99 C 779.91 488.08 770.90 450.68 747.25 422.75 C 731.07 403.18 708.70 389.54 684.89 381.26 C 655.26 371.27 623.47 368.91 592.45 371.60 M 170.45 384.59 C 162.77 386.89 156.56 394.84 157.04 402.95 C 156.94 531.31 157.04 659.67 156.98 788.03 C 156.70 794.76 157.08 802.52 163.18 806.82 C 169.32 813.80 178.86 811.75 186.99 812.11 C 221.99 811.70 256.99 812.38 291.98 811.83 C 298.96 812.23 305.99 808.47 309.38 802.37 C 311.55 797.57 312.28 792.25 312.10 787.03 C 311.85 660.34 312.11 533.64 311.97 406.96 C 313.77 394.45 302.78 382.09 290.04 383.90 C 250.18 384.51 210.26 383.11 170.45 384.59 Z" />
</g>
</svg>
