<?xml version="1.0" encoding="UTF-8" ?>
<!DOCTYPE svg PUBLIC "-//W3C//DTD SVG 1.1//EN" "http://www.w3.org/Graphics/SVG/1.1/DTD/svg11.dtd">
<svg width="952pt" height="320pt" viewBox="0 0 952 320" version="1.1" xmlns="http://www.w3.org/2000/svg">
<g id="#ffffffff">
</g>
<g id="#181617ff">
<path fill="#181617" opacity="1.00" d=" M 325.79 0.00 L 352.20 0.00 C 367.26 0.92 382.32 2.30 397.14 5.24 C 450.72 15.05 501.52 39.06 543.66 73.50 C 532.10 73.87 520.54 73.54 508.97 73.69 C 505.93 73.63 502.57 74.13 499.96 72.20 C 452.49 43.48 397.50 27.18 342.01 25.97 C 304.70 25.02 267.22 30.75 231.90 42.85 C 159.76 67.13 97.68 117.70 56.14 181.14 C 30.23 220.27 12.21 264.41 2.11 310.18 C 3.10 300.70 4.98 291.33 7.13 282.05 C 24.55 202.64 67.88 128.64 130.53 76.52 C 163.29 49.24 201.16 27.94 241.84 15.06 C 268.97 6.24 297.33 1.47 325.79 0.00 Z" />
<path fill="#181617" opacity="1.00" d=" M 933.43 149.68 C 940.66 146.49 949.93 153.06 948.83 161.01 C 949.46 167.45 943.23 172.97 936.98 172.51 C 929.93 172.46 924.19 164.86 926.17 158.10 C 926.94 154.28 929.85 151.09 933.43 149.68 M 933.54 152.52 C 931.73 153.74 930.05 155.37 929.37 157.50 C 926.67 163.03 931.77 170.46 937.96 169.77 C 944.27 169.84 948.35 161.95 945.39 156.62 C 943.41 152.33 937.76 149.80 933.54 152.52 Z" />
<path fill="#181617" opacity="1.00" d=" M 932.53 154.42 C 935.40 154.38 938.42 153.84 941.20 154.85 C 943.50 156.44 942.14 158.92 941.48 160.99 C 941.78 163.30 942.42 165.56 942.66 167.90 C 939.48 168.02 939.12 164.77 938.28 162.50 C 937.34 162.40 936.41 162.30 935.49 162.20 C 935.50 163.91 935.51 165.63 935.54 167.35 C 934.79 167.40 933.29 167.50 932.54 167.55 C 932.62 163.17 932.59 158.80 932.53 154.42 M 935.64 156.38 C 935.56 157.53 935.50 158.69 935.46 159.85 C 936.73 159.72 938.02 159.59 939.32 159.44 C 939.38 158.78 939.50 157.44 939.57 156.77 C 938.25 156.64 936.93 156.51 935.64 156.38 Z" />
<path fill="#181617" opacity="1.00" d=" M 141.55 268.54 C 143.79 267.90 147.88 267.90 147.70 271.16 C 148.39 273.99 146.12 277.15 143.07 276.62 C 138.57 277.18 138.00 269.96 141.55 268.54 Z" />
<path fill="#181617" opacity="1.00" d=" M 530.85 268.39 C 533.43 268.35 536.02 268.36 538.60 268.43 C 537.86 272.93 536.81 277.38 536.02 281.87 C 538.73 280.39 541.64 278.87 544.85 279.39 C 548.58 279.40 550.92 283.59 550.37 286.98 C 549.52 292.93 548.12 298.79 547.22 304.74 C 544.63 305.40 541.95 305.36 539.39 304.64 C 540.30 298.76 542.38 292.98 542.35 287.00 C 540.59 283.64 536.77 286.27 535.58 288.69 C 533.00 293.81 533.03 299.73 531.45 305.17 C 529.06 305.27 526.66 305.30 524.28 305.34 C 525.70 292.92 528.99 280.77 530.85 268.39 Z" />
<path fill="#181617" opacity="1.00" d=" M 716.55 268.53 C 718.47 268.07 720.46 268.40 722.41 268.58 C 722.55 270.84 723.74 273.91 721.54 275.53 C 720.30 276.99 718.21 276.55 716.53 276.47 C 713.52 274.93 713.71 270.16 716.55 268.53 Z" />
<path fill="#181617" opacity="1.00" d=" M 927.76 269.50 C 930.79 269.49 933.82 269.32 936.86 269.52 C 939.48 271.90 935.21 271.90 933.62 272.61 C 933.05 275.88 932.39 279.14 931.58 282.37 C 930.96 282.38 929.73 282.40 929.12 282.41 C 929.31 279.10 930.00 275.85 930.73 272.62 C 929.59 272.22 928.46 271.83 927.35 271.44 C 927.45 270.95 927.65 269.98 927.76 269.50 Z" />
<path fill="#181617" opacity="1.00" d=" M 939.48 269.44 C 940.70 269.44 941.94 269.44 943.19 269.45 C 943.37 271.93 943.50 274.42 943.81 276.89 C 945.29 274.48 946.56 271.95 947.80 269.40 C 948.60 269.42 950.21 269.45 951.01 269.47 C 950.13 273.93 952.36 280.49 947.52 283.03 C 947.31 280.11 947.57 277.20 948.01 274.32 C 946.16 277.31 945.35 281.35 941.86 282.90 C 941.57 280.10 941.45 277.28 941.15 274.48 C 939.80 277.43 940.01 281.76 936.38 282.95 C 936.67 278.31 938.26 273.89 939.48 269.44 Z" />
<path fill="#181617" opacity="1.00" d=" M 47.68 270.39 C 51.21 270.39 54.75 270.37 58.28 270.48 C 58.26 278.26 59.30 285.97 59.81 293.72 C 63.18 285.82 66.83 278.04 70.78 270.40 C 74.18 270.38 77.59 270.39 80.99 270.39 C 79.75 282.04 78.01 293.64 76.35 305.24 C 73.99 305.28 71.64 305.30 69.28 305.31 C 69.84 296.43 71.88 287.71 72.90 278.87 C 68.99 287.57 64.54 296.00 60.36 304.56 C 58.39 304.56 56.42 304.57 54.45 304.57 C 53.49 295.96 52.84 287.32 52.35 278.68 C 50.47 285.77 49.11 292.98 47.29 300.09 C 46.72 301.85 46.77 304.06 45.07 305.20 C 43.09 305.33 41.11 305.27 39.14 305.31 C 41.66 293.60 44.88 282.04 47.68 270.39 Z" />
<path fill="#181617" opacity="1.00" d=" M 603.26 270.43 C 606.63 270.38 610.00 270.42 613.37 270.44 C 614.05 282.09 616.53 293.59 616.84 305.26 C 614.32 305.26 611.80 305.25 609.29 305.28 C 608.86 302.28 608.61 299.26 608.47 296.23 C 605.17 296.26 601.87 296.23 598.57 296.26 C 597.05 299.24 596.26 302.75 593.87 305.18 C 591.42 305.40 588.96 305.28 586.52 305.26 C 591.69 293.47 597.67 282.04 603.26 270.43 M 601.04 290.29 C 603.32 290.35 605.62 290.37 607.92 290.38 C 607.69 285.84 607.46 281.30 607.20 276.77 C 604.98 281.19 602.96 285.72 601.04 290.29 Z" />
<path fill="#181617" opacity="1.00" d=" M 815.33 270.37 C 817.85 270.37 820.37 270.38 822.90 270.40 C 823.92 278.66 822.65 286.95 822.72 295.21 C 826.70 287.23 829.33 278.62 832.78 270.38 C 835.68 270.38 838.59 270.38 841.50 270.42 C 841.36 278.93 841.64 287.46 840.63 295.93 C 844.46 287.60 846.95 278.74 850.66 270.36 C 853.34 270.40 856.04 270.39 858.74 270.48 C 855.00 278.83 851.32 287.21 847.61 295.58 C 846.09 298.80 845.05 302.29 842.95 305.21 C 840.41 305.38 837.86 305.28 835.32 305.30 C 835.30 297.48 834.63 289.69 834.56 281.87 C 831.44 289.35 828.88 297.09 825.29 304.37 C 822.71 306.04 819.41 305.02 816.52 305.23 C 816.58 293.58 815.14 282.02 815.33 270.37 Z" />
<path fill="#181617" opacity="1.00" d=" M 914.51 270.38 C 917.22 270.40 919.94 270.39 922.66 270.46 C 920.63 278.15 918.83 285.89 917.07 293.64 C 915.09 293.66 913.11 293.66 911.16 293.63 C 912.08 285.86 913.22 278.10 914.51 270.38 Z" />
<path fill="#181617" opacity="1.00" d=" M 242.82 270.47 C 245.45 270.41 248.07 270.40 250.70 270.43 C 248.50 281.81 246.25 293.19 244.31 304.61 C 241.70 305.32 238.98 305.44 236.36 304.70 C 238.81 293.35 240.83 281.90 242.82 270.47 Z" />
<path fill="#181617" opacity="1.00" d=" M 512.72 274.83 C 515.31 274.22 517.88 273.53 520.51 273.05 C 520.08 275.25 519.62 277.45 519.18 279.65 C 520.99 279.70 522.81 279.74 524.64 279.81 C 524.23 281.73 523.77 283.64 523.37 285.57 C 521.54 285.58 519.71 285.60 517.89 285.64 C 517.28 289.92 516.14 294.13 516.10 298.48 C 517.38 298.92 518.67 299.34 519.98 299.76 C 519.77 301.68 519.56 303.60 519.37 305.53 C 516.14 305.50 512.39 306.56 509.69 304.24 C 508.39 303.63 508.39 302.15 508.29 300.93 C 508.01 295.81 509.62 290.86 510.63 285.90 C 509.77 285.75 508.06 285.43 507.20 285.28 C 507.57 283.56 507.97 281.86 508.38 280.16 C 509.48 279.92 510.59 279.70 511.70 279.49 C 512.03 277.93 512.37 276.38 512.72 274.83 Z" />
<path fill="#181617" opacity="1.00" d=" M 84.83 302.06 C 79.30 294.07 84.95 281.52 94.25 279.56 C 97.27 279.33 100.68 278.86 103.34 280.68 C 107.66 283.32 107.68 290.78 103.09 293.17 C 99.00 295.44 94.16 295.41 89.62 295.80 C 90.53 297.05 91.33 298.44 92.61 299.37 C 95.96 300.21 99.44 299.53 102.64 298.40 C 102.92 299.90 103.28 301.40 103.40 302.93 C 102.32 304.94 99.75 305.04 97.78 305.54 C 93.32 306.02 87.75 306.11 84.83 302.06 M 90.60 289.52 C 94.00 290.04 97.58 289.72 100.02 287.02 C 98.80 286.09 97.75 284.22 95.96 284.58 C 93.49 285.33 92.05 287.56 90.60 289.52 Z" />
<path fill="#181617" opacity="1.00" d=" M 157.57 280.52 C 161.43 278.74 165.80 279.44 169.88 279.76 C 169.35 281.68 168.77 283.58 168.22 285.50 C 165.41 285.60 162.19 284.73 159.86 286.78 C 156.16 289.00 155.47 293.98 156.77 297.80 C 158.94 300.67 162.81 299.23 165.82 299.17 C 165.74 301.15 165.67 303.13 165.58 305.11 C 160.56 305.72 154.25 306.94 150.51 302.59 C 147.90 300.09 148.09 296.28 148.27 292.96 C 148.42 287.40 152.55 282.56 157.57 280.52 Z" />
<path fill="#181617" opacity="1.00" d=" M 178.99 281.03 C 184.24 278.41 190.30 279.49 195.92 279.88 C 195.45 288.42 192.57 296.66 192.48 305.26 C 190.50 305.27 188.53 305.30 186.55 305.37 C 186.15 304.10 185.77 302.82 185.40 301.55 C 183.35 303.52 181.09 305.96 177.97 305.75 C 173.89 306.29 170.35 302.89 169.75 299.01 C 168.76 291.91 172.42 284.17 178.99 281.03 M 177.67 296.97 C 178.18 298.94 180.26 300.46 182.17 299.16 C 186.73 296.11 186.67 289.95 187.66 285.11 C 181.22 284.29 176.92 291.20 177.67 296.97 Z" />
<path fill="#181617" opacity="1.00" d=" M 202.28 279.74 C 204.36 279.73 206.44 279.73 208.52 279.69 C 208.57 280.43 208.69 281.91 208.74 282.65 C 212.19 280.06 216.89 278.08 221.05 280.08 C 225.00 282.52 223.66 287.75 223.33 291.58 C 222.26 296.13 222.14 300.98 220.16 305.26 C 217.87 305.36 215.57 305.29 213.28 305.30 C 213.69 299.20 216.07 293.30 215.70 287.15 C 215.60 284.41 212.03 285.27 210.88 286.80 C 206.37 291.59 206.87 298.78 205.30 304.78 C 202.93 305.19 200.52 305.31 198.12 305.35 C 198.57 296.69 201.14 288.31 202.28 279.74 Z" />
<path fill="#181617" opacity="1.00" d=" M 261.61 282.99 C 264.84 279.83 269.80 278.12 274.06 280.11 C 277.32 282.18 276.71 286.42 276.44 289.71 C 275.61 294.77 274.53 299.79 273.55 304.82 C 271.05 304.81 268.56 304.78 266.07 304.72 C 266.49 298.58 269.23 292.57 268.46 286.40 C 266.45 284.01 263.35 286.18 262.27 288.35 C 259.54 293.34 259.30 299.23 258.24 304.72 C 255.85 304.78 253.47 304.80 251.09 304.80 C 251.16 296.32 254.33 288.26 254.82 279.83 C 257.06 279.75 259.30 279.72 261.54 279.70 C 261.56 280.52 261.59 282.17 261.61 282.99 Z" />
<path fill="#181617" opacity="1.00" d=" M 284.71 281.69 C 288.93 278.44 294.80 278.98 299.63 280.33 C 299.09 282.12 298.55 283.92 298.06 285.74 C 296.01 285.38 293.98 284.89 291.96 284.42 C 290.90 285.30 289.86 286.19 288.83 287.10 C 291.97 290.04 297.51 291.18 298.27 296.04 C 298.63 299.42 296.56 302.93 293.46 304.35 C 288.87 306.67 283.38 305.89 278.71 304.21 C 279.17 302.50 279.59 300.77 279.99 299.05 C 283.72 299.26 288.08 301.32 291.08 298.05 C 288.37 294.55 282.46 293.80 281.78 288.85 C 281.63 286.24 282.50 283.26 284.71 281.69 Z" />
<path fill="#181617" opacity="1.00" d=" M 340.51 284.04 C 342.82 281.17 345.88 278.75 349.79 279.24 C 349.54 281.63 349.04 283.98 348.52 286.33 C 346.06 286.96 343.11 287.28 341.68 289.69 C 338.87 294.39 338.95 300.09 337.50 305.25 C 335.06 305.28 332.62 305.29 330.19 305.28 C 330.96 296.71 333.94 288.46 333.94 279.79 C 336.18 279.75 338.41 279.74 340.65 279.75 C 340.60 281.17 340.55 282.60 340.51 284.04 Z" />
<path fill="#181617" opacity="1.00" d=" M 357.10 281.96 C 362.61 278.39 369.62 279.04 375.77 280.23 C 374.97 288.43 372.20 296.40 372.36 304.71 C 370.08 305.06 367.79 305.29 365.50 305.45 C 365.50 304.10 365.52 302.75 365.54 301.41 C 363.10 303.49 360.50 306.14 357.00 305.74 C 353.32 306.24 350.46 302.98 349.58 299.73 C 348.50 293.05 351.21 285.60 357.10 281.96 M 361.47 286.54 C 358.49 289.27 356.70 293.46 357.54 297.51 C 358.30 298.89 359.78 300.23 361.45 299.41 C 366.32 296.44 366.21 290.10 367.55 285.18 C 365.50 285.42 363.09 284.99 361.47 286.54 Z" />
<path fill="#181617" opacity="1.00" d=" M 388.41 283.06 C 391.54 280.03 396.00 278.31 400.28 279.83 C 403.33 281.14 404.04 284.92 403.60 287.89 C 402.86 293.75 401.50 299.51 400.20 305.27 C 397.88 305.26 395.56 305.29 393.24 305.31 C 392.95 298.67 396.72 292.33 395.24 285.71 C 391.59 284.26 388.97 287.82 388.00 290.89 C 386.58 295.32 385.90 299.96 385.30 304.57 C 382.68 305.23 379.97 305.46 377.34 304.73 C 379.05 296.45 380.63 288.14 381.83 279.77 C 384.05 279.75 386.28 279.73 388.51 279.73 C 388.48 280.56 388.44 282.23 388.41 283.06 Z" />
<path fill="#181617" opacity="1.00" d=" M 415.96 280.89 C 419.95 278.76 424.62 279.37 428.95 279.70 C 428.55 281.67 428.02 283.62 427.46 285.56 C 424.59 285.71 421.21 284.68 418.94 286.95 C 415.42 289.37 413.80 294.97 416.64 298.45 C 419.05 300.42 422.33 299.27 425.12 299.14 C 425.21 300.91 425.32 302.68 425.46 304.45 C 420.90 305.97 415.28 306.75 411.09 303.87 C 407.52 301.43 406.72 296.66 407.36 292.66 C 407.95 287.59 411.52 283.22 415.96 280.89 Z" />
<path fill="#181617" opacity="1.00" d=" M 429.66 290.44 C 431.30 285.19 435.52 280.16 441.25 279.48 C 444.40 279.29 448.16 278.89 450.55 281.44 C 453.37 283.45 452.80 287.33 452.28 290.30 C 448.97 295.73 441.60 295.17 436.10 295.82 C 437.14 297.07 437.88 298.82 439.47 299.47 C 442.79 300.31 446.16 299.22 449.36 298.36 C 449.42 300.28 449.47 302.22 449.52 304.15 C 444.25 305.68 437.98 307.05 433.03 303.93 C 428.59 300.99 428.99 295.06 429.66 290.44 M 436.86 289.45 C 439.88 290.07 442.93 289.61 445.65 288.19 C 445.60 287.59 445.48 286.38 445.42 285.77 C 444.76 285.41 443.44 284.67 442.78 284.30 C 440.30 285.38 438.37 287.24 436.86 289.45 Z" />
<path fill="#181617" opacity="1.00" d=" M 557.98 283.94 C 561.63 279.60 567.97 278.29 573.23 280.03 C 578.28 281.84 579.18 289.79 574.74 292.76 C 570.61 295.52 565.46 295.48 560.70 295.78 C 561.59 297.02 562.40 298.38 563.65 299.32 C 567.10 300.39 570.72 299.33 574.07 298.34 C 574.18 300.26 574.28 302.17 574.38 304.09 C 568.82 305.79 561.67 307.33 556.85 303.13 C 551.86 297.77 553.49 289.07 557.98 283.94 M 561.63 289.55 C 564.99 289.91 568.61 289.87 571.01 287.08 C 570.04 286.10 569.06 285.13 568.08 284.18 C 565.41 285.28 563.13 287.06 561.63 289.55 Z" />
<path fill="#181617" opacity="1.00" d=" M 631.66 283.09 C 635.26 278.81 643.15 277.36 646.24 282.94 C 648.89 280.59 652.17 278.72 655.86 279.41 C 658.92 279.24 660.82 282.38 660.83 285.13 C 661.08 291.73 658.60 298.02 658.15 304.56 C 655.58 305.33 652.90 305.46 650.32 304.68 C 651.31 299.82 652.30 294.95 653.05 290.04 C 653.46 288.37 652.67 286.76 652.31 285.17 C 650.15 285.33 648.08 286.13 647.03 288.14 C 644.06 293.48 644.61 299.88 642.45 305.50 C 640.09 305.29 637.75 304.96 635.42 304.55 C 636.46 298.73 638.39 292.94 638.30 286.99 C 637.10 283.76 633.13 286.00 632.18 288.29 C 629.70 293.42 629.27 299.23 628.22 304.76 C 625.82 304.79 623.43 304.80 621.05 304.78 C 621.76 296.66 624.22 288.82 624.94 280.70 C 626.60 278.94 629.41 280.04 631.56 279.66 C 631.59 280.52 631.63 282.23 631.66 283.09 Z" />
<path fill="#181617" opacity="1.00" d=" M 666.73 302.37 C 660.94 294.38 666.53 281.11 676.27 279.52 C 679.25 279.34 682.63 278.95 685.22 280.80 C 689.09 283.33 689.36 289.82 685.59 292.58 C 681.50 295.69 676.04 295.35 671.20 295.75 C 673.55 301.26 680.10 299.96 684.61 298.31 C 684.64 300.27 684.66 302.25 684.65 304.22 C 678.89 305.92 671.29 307.34 666.73 302.37 M 672.34 289.64 C 675.05 289.76 677.79 289.59 680.41 288.80 C 680.57 288.04 680.89 286.53 681.05 285.77 C 677.53 283.04 673.86 286.40 672.34 289.64 Z" />
<path fill="#181617" opacity="1.00" d=" M 699.78 284.10 C 702.25 281.16 705.44 278.81 709.50 279.16 C 708.96 281.54 708.50 283.93 708.23 286.36 C 705.26 286.74 702.13 287.73 700.68 290.59 C 698.58 295.01 698.27 300.01 697.29 304.75 C 694.88 304.79 692.46 304.80 690.06 304.77 C 690.38 296.31 693.61 288.25 693.61 279.76 C 695.93 279.74 698.25 279.73 700.59 279.75 C 700.33 281.20 700.07 282.66 699.78 284.10 Z" />
<path fill="#181617" opacity="1.00" d=" M 731.20 281.25 C 735.34 278.81 740.36 279.22 744.94 279.80 C 744.44 281.72 743.88 283.63 743.35 285.55 C 741.23 285.50 739.11 285.33 737.01 285.56 C 732.71 287.38 729.85 292.80 731.78 297.25 C 733.59 300.88 738.16 299.24 741.32 299.10 C 741.31 300.89 741.31 302.67 741.35 304.47 C 736.41 306.14 730.13 306.82 725.99 303.01 C 723.14 300.57 723.13 296.45 723.36 293.02 C 723.57 288.00 727.09 283.80 731.20 281.25 Z" />
<path fill="#181617" opacity="1.00" d=" M 751.02 283.02 C 756.74 278.32 764.85 278.81 771.65 280.41 C 769.68 288.59 768.22 296.88 767.70 305.28 C 765.67 305.29 763.65 305.30 761.63 305.36 C 761.34 304.21 761.05 303.06 760.77 301.92 C 758.44 303.64 756.06 305.93 752.94 305.74 C 748.72 306.29 744.65 302.29 745.23 298.05 C 744.55 292.45 746.55 286.57 751.02 283.02 M 755.79 287.77 C 753.73 290.72 751.29 294.92 753.51 298.40 C 754.88 300.72 758.22 299.28 759.36 297.44 C 761.67 293.72 762.41 289.23 762.61 284.92 C 760.14 285.31 757.32 285.50 755.79 287.77 Z" />
<path fill="#181617" opacity="1.00" d=" M 784.51 282.64 C 788.00 279.04 795.08 277.54 798.41 282.06 C 799.98 289.72 796.92 297.15 796.23 304.70 C 793.62 305.23 790.95 305.35 788.31 305.34 C 789.05 300.19 790.33 295.13 791.21 290.01 C 791.75 288.30 790.78 286.73 790.25 285.19 C 786.32 285.08 783.95 288.70 783.05 292.08 C 781.99 296.28 781.39 300.58 780.48 304.82 C 778.01 304.80 775.55 304.77 773.10 304.71 C 774.25 296.34 776.31 288.12 777.35 279.73 C 780.05 279.87 784.40 278.64 784.51 282.64 Z" />
<path fill="#181617" opacity="1.00" d=" M 863.30 281.28 C 868.63 278.29 874.97 279.52 880.76 279.90 C 880.28 288.46 876.83 296.65 877.47 305.31 C 875.16 305.28 872.85 305.27 870.56 305.27 C 870.59 303.91 870.63 302.55 870.70 301.20 C 868.34 303.49 865.63 306.13 862.05 305.75 C 857.79 306.10 854.27 302.04 854.49 297.94 C 853.90 291.33 857.19 284.23 863.30 281.28 M 862.36 295.86 C 862.13 297.99 864.25 300.46 866.47 299.40 C 871.26 296.35 871.46 290.14 872.37 285.12 C 866.33 284.12 862.11 290.42 862.36 295.86 Z" />
<path fill="#181617" opacity="1.00" d=" M 900.83 279.79 C 903.54 279.73 906.26 279.73 908.99 279.80 C 905.52 286.99 901.88 294.10 898.30 301.24 C 894.71 308.00 889.94 315.21 881.96 317.05 C 881.44 314.94 880.86 312.85 880.27 310.77 C 883.38 308.91 887.04 307.13 888.69 303.73 C 887.92 295.62 884.91 287.87 884.01 279.76 C 886.68 279.72 889.37 279.75 892.06 279.81 C 892.33 285.29 893.46 290.68 893.90 296.15 C 896.56 290.86 898.62 285.28 900.83 279.79 Z" />
<path fill="#181617" opacity="1.00" d=" M 109.48 279.78 C 112.30 279.73 115.13 279.73 117.96 279.77 C 119.13 282.11 119.36 285.27 121.55 286.92 C 123.31 284.55 124.89 282.05 126.66 279.69 C 129.54 279.73 132.43 279.74 135.32 279.81 C 131.93 284.05 128.18 287.98 124.76 292.19 C 126.53 296.57 128.70 300.78 130.35 305.22 C 127.87 305.25 125.40 305.37 122.93 305.20 C 120.62 303.04 120.14 299.67 118.91 296.88 C 117.07 299.76 115.21 302.63 113.11 305.32 C 110.37 305.29 107.64 305.27 104.91 305.23 C 107.64 300.39 112.23 296.83 114.91 292.05 C 114.06 287.63 111.15 283.92 109.48 279.78 Z" />
<path fill="#181617" opacity="1.00" d=" M 138.35 280.37 C 140.52 279.06 143.41 279.99 145.87 279.74 C 144.38 288.08 142.81 296.40 141.29 304.74 C 138.71 305.43 136.03 305.35 133.45 304.67 C 135.33 296.62 136.35 288.38 138.35 280.37 Z" />
<path fill="#181617" opacity="1.00" d=" M 302.49 299.05 C 302.62 292.49 304.78 286.18 305.67 279.71 C 308.26 279.73 310.86 279.73 313.46 279.75 C 312.41 286.30 309.96 292.79 310.69 299.50 C 313.71 300.09 316.42 298.42 317.56 295.61 C 319.50 290.55 319.89 285.07 320.96 279.80 C 323.53 279.73 326.11 279.72 328.69 279.78 C 327.20 287.86 325.78 295.96 324.24 304.04 C 322.90 305.82 320.51 305.12 318.61 305.45 C 318.11 304.38 317.62 303.32 317.15 302.25 C 314.60 304.36 311.56 306.21 308.09 305.72 C 304.55 305.90 302.28 302.28 302.49 299.05 Z" />
<path fill="#181617" opacity="1.00" d=" M 713.56 280.17 C 715.94 279.35 718.51 279.81 720.98 279.74 C 719.79 287.97 718.13 296.14 716.38 304.26 C 714.42 306.05 711.54 305.03 709.16 305.31 C 709.80 296.83 712.03 288.53 713.56 280.17 Z" />
<path fill="#181617" opacity="1.00" d=" M 458.56 296.52 C 460.48 296.16 463.28 295.59 464.43 297.66 C 467.34 301.06 463.60 306.78 459.31 305.70 C 454.84 305.13 454.81 298.34 458.56 296.52 Z" />
<path fill="#181617" opacity="1.00" d=" M 475.57 296.52 C 478.23 295.74 482.01 296.09 482.56 299.37 C 483.60 303.16 479.25 307.12 475.60 305.43 C 472.09 303.93 472.54 298.31 475.57 296.52 Z" />
<path fill="#181617" opacity="1.00" d=" M 492.61 296.60 C 494.86 295.91 497.63 295.88 499.33 297.79 C 499.77 300.11 500.36 303.42 497.79 304.72 C 495.54 306.47 491.92 306.01 490.53 303.40 C 490.07 300.94 490.27 298.05 492.61 296.60 Z" />
<path fill="#181617" opacity="1.00" d=" M 908.68 298.72 C 909.70 296.03 912.91 296.00 915.28 296.61 C 918.28 297.99 918.15 302.83 915.62 304.62 C 914.03 306.27 911.54 305.44 909.54 305.58 C 908.51 303.44 907.02 300.96 908.68 298.72 Z" />
</g>
<g id="#34498aff">
<path fill="#34498a" opacity="1.00" d=" M 526.42 95.53 C 533.86 93.28 543.36 95.40 547.47 102.47 C 551.99 110.48 550.20 121.99 542.56 127.52 C 535.80 132.41 525.67 133.36 518.77 128.26 C 511.72 122.87 510.60 112.18 514.75 104.68 C 517.35 100.35 521.50 96.88 526.42 95.53 Z" />
<path fill="#34498a" opacity="1.00" d=" M 158.87 123.79 C 160.74 116.74 162.04 109.53 164.43 102.62 C 178.40 102.90 192.38 102.68 206.36 102.74 C 208.31 126.47 210.50 150.16 211.97 173.93 C 212.41 177.82 212.31 181.77 213.19 185.60 C 216.87 177.73 220.13 169.65 223.78 161.76 C 232.84 142.89 242.12 124.12 251.24 105.28 C 251.95 104.33 252.47 102.51 253.97 102.75 C 267.79 102.74 281.61 102.74 295.43 102.75 C 289.19 148.68 283.04 194.61 276.81 240.54 C 265.96 240.59 255.12 240.59 244.27 240.54 C 248.43 210.93 252.74 181.32 257.62 151.82 C 253.47 159.25 250.42 167.23 246.62 174.83 C 235.96 196.09 225.38 217.38 214.67 238.61 C 206.01 238.63 197.35 238.62 188.68 238.60 C 186.91 214.07 184.35 189.58 182.59 165.05 C 182.46 161.11 182.72 157.05 181.17 153.33 C 178.07 165.93 175.97 178.76 172.58 191.29 C 168.70 207.72 164.71 224.13 160.72 240.53 C 150.29 240.57 139.86 240.65 129.43 240.49 C 139.58 201.68 148.84 162.63 158.87 123.79 Z" />
<path fill="#34498a" opacity="1.00" d=" M 571.69 107.53 C 584.60 104.69 597.88 104.10 611.06 104.39 C 622.94 104.83 635.36 107.49 644.71 115.28 C 652.86 121.46 656.52 132.04 656.38 142.01 C 656.25 157.01 649.04 172.03 636.45 180.46 C 621.22 190.84 601.85 192.69 583.94 191.06 C 581.08 206.84 577.79 222.55 575.02 238.35 C 565.58 238.46 556.15 238.44 546.71 238.36 C 555.02 194.74 563.20 151.11 571.69 107.53 M 595.43 130.20 C 593.06 142.51 590.87 154.86 588.43 167.17 C 598.87 168.99 610.82 168.52 619.18 161.19 C 627.26 154.64 630.64 140.99 623.30 132.71 C 617.56 126.75 608.57 127.14 600.96 127.47 C 598.96 127.68 595.47 127.35 595.43 130.20 Z" />
<path fill="#34498a" opacity="1.00" d=" M 312.43 157.44 C 322.76 144.98 338.66 136.90 354.99 137.32 C 365.74 136.84 377.39 139.99 384.62 148.38 C 390.10 154.11 392.33 162.24 391.77 170.04 C 392.14 180.04 386.36 189.69 377.70 194.55 C 363.23 202.98 345.88 203.47 329.59 203.49 C 330.55 209.56 335.65 214.08 341.56 215.21 C 353.83 217.07 366.60 214.52 377.43 208.49 C 378.70 217.10 379.34 225.80 379.93 234.49 C 367.90 240.37 354.39 243.19 341.00 242.71 C 328.65 243.21 315.58 239.24 307.09 229.91 C 300.31 221.99 297.21 211.34 297.39 201.01 C 296.77 185.29 302.45 169.54 312.43 157.44 M 345.96 163.95 C 339.73 166.16 335.53 171.75 332.91 177.58 C 340.99 177.46 349.70 177.99 357.02 173.95 C 360.12 172.52 361.62 168.41 359.59 165.51 C 356.00 162.05 350.32 161.99 345.96 163.95 Z" />
<path fill="#34498a" opacity="1.00" d=" M 398.12 139.45 C 410.36 139.20 422.62 139.41 434.87 139.34 C 438.62 148.63 442.38 157.92 445.90 167.30 C 452.37 157.99 458.77 148.63 465.31 139.37 C 478.34 139.36 491.38 139.26 504.42 139.42 C 490.49 156.23 475.89 172.47 461.69 189.05 C 469.13 206.32 476.96 223.42 484.81 240.50 C 472.52 240.62 460.23 240.59 447.95 240.51 C 444.17 230.70 440.20 220.95 436.87 210.98 C 433.03 216.79 429.64 222.89 425.51 228.51 C 422.53 232.48 420.22 237.07 416.55 240.46 C 403.64 240.71 390.71 240.55 377.79 240.48 C 392.34 222.93 407.04 205.49 421.72 188.05 C 413.95 171.80 405.86 155.71 398.12 139.45 Z" />
<path fill="#34498a" opacity="1.00" d=" M 509.74 139.39 C 520.77 139.30 531.81 139.33 542.85 139.39 C 536.90 173.13 530.01 206.72 524.10 240.47 C 512.87 240.66 501.64 240.59 490.42 240.50 C 496.97 206.81 503.17 173.06 509.74 139.39 Z" />
<path fill="#34498a" opacity="1.00" d=" M 706.29 141.46 C 719.84 138.38 733.98 139.08 747.56 141.60 C 750.73 142.58 755.10 142.40 757.24 145.01 C 753.77 164.07 749.79 183.05 746.53 202.15 C 744.53 214.13 743.86 226.28 743.57 238.41 C 734.83 238.42 726.08 238.39 717.34 238.44 C 717.25 232.29 718.18 226.21 718.50 220.08 C 714.89 224.57 711.79 229.60 707.10 233.09 C 697.57 240.94 683.43 243.06 672.21 237.73 C 661.82 232.38 656.10 220.43 656.27 209.03 C 655.67 195.92 658.94 182.70 665.35 171.27 C 674.04 156.19 689.23 145.02 706.29 141.46 M 707.78 163.63 C 696.56 169.31 689.78 181.19 687.02 193.09 C 686.02 198.96 685.58 205.35 687.89 210.98 C 689.84 215.82 695.71 218.72 700.70 216.96 C 707.11 214.98 711.63 209.40 714.66 203.67 C 721.29 190.71 722.40 175.91 724.76 161.77 C 719.07 161.14 712.99 160.79 707.78 163.63 Z" />
<path fill="#34498a" opacity="1.00" d=" M 808.48 139.64 C 818.75 138.96 829.43 139.78 838.88 144.20 C 837.05 151.24 834.46 158.04 832.02 164.87 C 824.91 162.00 817.19 159.96 809.48 160.91 C 806.05 161.34 802.65 163.15 800.91 166.21 C 799.94 168.69 800.48 171.73 802.51 173.53 C 806.87 177.90 813.01 179.65 818.07 183.02 C 825.64 187.58 833.02 194.64 833.60 203.99 C 834.67 213.99 830.72 224.46 822.86 230.83 C 814.13 237.62 802.91 240.51 791.98 240.56 C 780.77 240.85 769.13 239.09 759.40 233.19 C 761.76 226.45 764.07 219.69 766.45 212.95 C 774.32 216.11 782.41 219.35 791.01 219.55 C 794.70 219.75 798.65 218.93 801.47 216.41 C 804.32 213.79 804.45 208.93 801.99 206.01 C 798.50 201.49 792.85 199.72 788.14 196.85 C 780.82 192.71 773.96 186.46 771.90 178.00 C 769.97 168.65 773.19 158.58 779.72 151.70 C 787.26 144.07 797.95 140.41 808.48 139.64 Z" />
<path fill="#34498a" opacity="1.00" d=" M 873.68 143.67 C 885.22 138.80 898.24 138.45 910.42 140.77 C 914.08 141.40 917.60 142.63 920.96 144.17 C 919.16 151.18 916.51 157.93 914.38 164.84 C 906.43 161.95 897.76 159.39 889.29 161.39 C 885.36 162.43 881.27 166.45 882.87 170.81 C 885.19 176.03 891.10 177.86 895.71 180.48 C 904.08 184.72 912.48 191.00 915.18 200.43 C 917.45 210.73 914.33 222.27 906.46 229.47 C 898.50 236.78 887.56 239.89 876.97 240.48 C 864.83 241.05 852.04 239.56 841.48 233.13 C 844.03 226.44 846.17 219.61 848.54 212.86 C 857.53 216.62 867.10 220.32 877.03 219.35 C 881.24 218.87 886.18 215.74 885.73 210.95 C 886.02 205.90 881.10 202.90 877.34 200.60 C 870.13 196.92 862.62 192.97 857.80 186.22 C 852.96 179.83 852.53 171.07 854.86 163.62 C 857.54 154.47 865.03 147.30 873.68 143.67 Z" />
</g>
</svg>
