<?xml version="1.0" encoding="UTF-8" ?>
<!DOCTYPE svg PUBLIC "-//W3C//DTD SVG 1.1//EN" "http://www.w3.org/Graphics/SVG/1.1/DTD/svg11.dtd">
<svg width="128pt" height="128pt" viewBox="0 0 128 128" version="1.1" xmlns="http://www.w3.org/2000/svg">
<g id="#ffffffff">
<path fill="#ffffff" opacity="1.00" d=" M 57.22 21.24 C 72.16 18.06 88.59 25.97 95.43 39.63 C 100.48 49.19 99.94 61.24 94.35 70.44 C 90.94 77.12 83.91 81.39 81.84 88.82 C 79.49 94.71 81.29 101.92 76.97 107.03 C 71.16 114.29 58.74 114.36 52.83 107.18 C 48.59 102.47 50.16 95.59 47.64 90.12 C 45.03 82.43 37.74 77.91 33.95 70.95 C 29.22 63.32 27.73 53.70 30.39 45.07 C 33.96 32.92 44.88 23.60 57.22 21.24 M 56.38 29.46 C 46.28 32.31 37.94 41.37 36.99 51.98 C 36.10 60.79 41.01 68.98 47.06 74.98 C 53.36 81.36 56.90 90.06 57.56 98.94 C 58.09 104.95 66.66 106.53 70.45 102.56 C 72.28 100.85 72.11 98.17 72.44 95.90 C 73.07 88.07 75.91 80.21 81.42 74.48 C 84.96 70.81 88.06 66.59 89.74 61.72 C 92.16 55.33 91.23 47.97 87.84 42.11 C 81.83 31.40 68.15 25.83 56.38 29.46 Z" />
<path fill="#ffffff" opacity="1.00" d=" M 54.51 53.38 C 55.46 50.99 58.30 50.87 60.35 51.78 C 58.94 52.58 57.17 52.81 56.01 54.01 C 55.56 57.95 56.25 61.93 55.68 65.86 C 55.00 68.71 50.48 69.54 49.42 66.43 C 50.38 66.56 52.30 66.80 53.27 66.92 C 55.25 62.65 53.44 57.82 54.51 53.38 Z" />
<path fill="#ffffff" opacity="1.00" d=" M 61.19 53.19 C 62.26 50.64 65.29 51.09 67.35 51.95 C 69.47 50.92 72.45 50.82 73.46 53.41 C 74.30 57.52 73.33 61.78 73.99 65.93 C 75.24 67.09 77.12 66.41 78.61 66.79 C 77.52 68.06 75.66 69.10 74.06 68.02 C 70.96 66.11 72.40 61.94 72.11 58.96 C 71.90 56.79 73.02 53.33 70.08 52.65 C 69.70 52.85 68.94 53.26 68.56 53.47 C 67.61 56.83 68.31 60.46 68.13 63.92 C 67.71 63.90 66.86 63.85 66.44 63.82 C 66.43 60.42 66.43 57.03 66.51 53.63 C 65.17 53.15 63.66 52.26 62.66 53.84 C 62.21 57.20 62.51 60.61 62.43 63.99 L 60.82 63.82 C 60.91 60.29 60.39 56.67 61.19 53.19 Z" />
</g>
<g id="#1c8bbbff">
<path fill="#1c8bbb" opacity="1.00" d=" M 54.27 2.27 C 70.41 -0.32 87.46 3.72 100.74 13.25 C 110.54 20.16 118.24 29.99 122.63 41.15 C 128.36 55.59 128.44 72.22 122.70 86.67 C 117.77 99.24 108.68 110.14 97.14 117.15 C 83.24 125.72 65.96 128.58 50.05 124.94 C 35.41 121.66 22.00 113.01 13.14 100.88 C 5.11 90.05 0.77 76.53 1.06 63.04 C 1.13 44.24 10.57 25.85 25.52 14.52 C 33.86 8.09 43.87 3.88 54.27 2.27 M 57.22 21.24 C 44.88 23.60 33.96 32.92 30.39 45.07 C 27.73 53.70 29.22 63.32 33.95 70.95 C 37.74 77.91 45.03 82.43 47.64 90.12 C 50.16 95.59 48.59 102.47 52.83 107.18 C 58.74 114.36 71.16 114.29 76.97 107.03 C 81.29 101.92 79.49 94.71 81.84 88.82 C 83.91 81.39 90.94 77.12 94.35 70.44 C 99.94 61.24 100.48 49.19 95.43 39.63 C 88.59 25.97 72.16 18.06 57.22 21.24 Z" />
<path fill="#1c8bbb" opacity="1.00" d=" M 56.38 29.46 C 68.15 25.83 81.83 31.40 87.84 42.11 C 91.23 47.97 92.16 55.33 89.74 61.72 C 88.06 66.59 84.96 70.81 81.42 74.48 C 75.91 80.21 73.07 88.07 72.44 95.90 C 72.11 98.17 72.28 100.85 70.45 102.56 C 66.66 106.53 58.09 104.95 57.56 98.94 C 56.90 90.06 53.36 81.36 47.06 74.98 C 41.01 68.98 36.10 60.79 36.99 51.98 C 37.94 41.37 46.28 32.31 56.38 29.46 M 54.51 53.38 C 53.44 57.82 55.25 62.65 53.27 66.92 C 52.30 66.80 50.38 66.56 49.42 66.43 C 50.48 69.54 55.00 68.71 55.68 65.86 C 56.25 61.93 55.56 57.95 56.01 54.01 C 57.17 52.81 58.94 52.58 60.35 51.78 C 58.30 50.87 55.46 50.99 54.51 53.38 M 61.19 53.19 C 60.39 56.67 60.91 60.29 60.82 63.82 L 62.43 63.99 C 62.51 60.61 62.21 57.20 62.66 53.84 C 63.66 52.26 65.17 53.15 66.51 53.63 C 66.43 57.03 66.43 60.42 66.44 63.82 C 66.86 63.85 67.71 63.90 68.13 63.92 C 68.31 60.46 67.61 56.83 68.56 53.47 C 68.94 53.26 69.70 52.85 70.08 52.65 C 73.02 53.33 71.90 56.79 72.11 58.96 C 72.40 61.94 70.96 66.11 74.06 68.02 C 75.66 69.10 77.52 68.06 78.61 66.79 C 77.12 66.41 75.24 67.09 73.99 65.93 C 73.33 61.78 74.30 57.52 73.46 53.41 C 72.45 50.82 69.47 50.92 67.35 51.95 C 65.29 51.09 62.26 50.64 61.19 53.19 Z" />
</g>
</svg>
