<?xml version="1.0" encoding="UTF-8" ?>
<!DOCTYPE svg PUBLIC "-//W3C//DTD SVG 1.1//EN" "http://www.w3.org/Graphics/SVG/1.1/DTD/svg11.dtd">
<svg width="159pt" height="160pt" viewBox="0 0 159 160" version="1.1" xmlns="http://www.w3.org/2000/svg">
<g id="#fefefeff">
</g>
<g id="#d9212aff">
<path fill="#d9212a" opacity="1.00" d=" M 32.45 13.56 C 65.61 13.45 98.77 13.53 131.94 13.52 C 138.82 13.38 145.84 16.43 149.87 22.12 C 152.87 26.06 154.05 31.06 154.05 35.95 C 154.10 54.85 154.06 73.74 153.97 92.64 C 152.14 86.16 148.40 79.99 142.51 76.48 C 132.77 70.71 121.09 69.97 110.03 69.94 C 98.76 70.00 86.85 70.95 77.09 77.12 C 70.16 81.26 65.14 89.28 66.18 97.52 C 66.77 104.44 71.80 110.14 77.65 113.42 C 88.53 119.61 101.12 121.40 113.20 123.92 C 118.05 125.22 124.15 126.50 126.25 131.71 C 127.79 136.59 123.06 140.79 118.74 141.92 C 112.62 143.35 105.62 143.27 100.12 139.92 C 95.74 137.51 93.81 132.69 92.91 128.04 C 82.64 128.34 72.41 129.27 62.14 129.53 C 62.97 141.27 71.38 151.87 82.42 155.77 C 67.61 155.70 52.81 155.76 38.01 155.74 C 33.84 155.67 29.50 156.19 25.52 154.63 C 17.46 151.77 11.60 143.61 11.70 135.02 C 11.72 101.33 11.69 67.64 11.70 33.96 C 11.78 23.04 21.55 13.51 32.45 13.56 Z" />
<path fill="#d9212a" opacity="1.00" d=" M 98.30 88.28 C 101.02 86.16 104.63 85.86 107.95 85.79 C 112.27 85.97 117.08 86.54 120.29 89.77 C 122.34 91.65 123.14 94.37 124.03 96.91 C 134.04 96.66 144.04 95.93 154.06 95.74 C 154.04 102.88 154.08 110.03 154.05 117.17 C 150.15 112.76 145.21 109.36 139.69 107.29 C 128.76 103.12 117.12 101.36 105.69 99.14 C 102.75 98.44 99.54 97.85 97.28 95.69 C 95.17 93.59 96.14 89.96 98.30 88.28 Z" />
</g>
</svg>
